G04 #@! TF.GenerationSoftware,KiCad,Pcbnew,5.1.5-52549c5~84~ubuntu18.04.1*
G04 #@! TF.CreationDate,2020-03-14T11:46:24+01:00*
G04 #@! TF.ProjectId,Fe203,46653230-332e-46b6-9963-61645f706362,rev?*
G04 #@! TF.SameCoordinates,Original*
G04 #@! TF.FileFunction,Copper,L1,Top*
G04 #@! TF.FilePolarity,Positive*
%FSLAX46Y46*%
G04 Gerber Fmt 4.6, Leading zero omitted, Abs format (unit mm)*
G04 Created by KiCad (PCBNEW 5.1.5-52549c5~84~ubuntu18.04.1) date 2020-03-14 11:46:24*
%MOMM*%
%LPD*%
G04 APERTURE LIST*
G04 #@! TA.AperFunction,Profile*
%ADD10C,0.200000*%
G04 #@! TD*
G04 #@! TA.AperFunction,ComponentPad*
%ADD11C,2.000000*%
G04 #@! TD*
G04 #@! TA.AperFunction,Conductor*
%ADD12C,0.762000*%
G04 #@! TD*
G04 APERTURE END LIST*
D10*
X106325985Y-137454210D02*
X107730129Y-138030000D01*
X64310008Y-95193254D02*
X64905850Y-96617463D01*
X214909985Y-56030000D02*
X123910000Y-56030000D01*
X209409985Y-59030000D02*
G75*
G03X209409985Y-59030000I-1500000J0D01*
G01*
X85410000Y-109030000D02*
G75*
G03X85410000Y-109030000I-1500000J0D01*
G01*
X107730129Y-138030000D02*
X216909985Y-138030000D01*
X64310009Y-63030001D02*
G75*
G02X66310008Y-61030000I2000000J1D01*
G01*
X64905850Y-96617463D02*
X106325985Y-137454210D01*
X121910000Y-58030000D02*
X121910000Y-59030000D01*
X119910000Y-61030000D02*
X66310009Y-61030000D01*
X214909985Y-56030000D02*
G75*
G02X216909985Y-58030000I0J-2000000D01*
G01*
X121910000Y-58030001D02*
G75*
G02X123909999Y-56030000I2000000J1D01*
G01*
X121910000Y-59030001D02*
G75*
G02X119909999Y-61030000I-2000000J1D01*
G01*
X64310008Y-95193254D02*
X64310008Y-63030000D01*
X216909985Y-58030000D02*
X216909985Y-138030000D01*
X213409985Y-133030000D02*
G75*
G03X213409985Y-133030000I-1500000J0D01*
G01*
X127410000Y-59030000D02*
G75*
G03X127410000Y-59030000I-1500000J0D01*
G01*
D11*
G04 #@! TO.P,CON1,2*
G04 #@! TO.N,B2*
X130670000Y-111680000D03*
G04 #@! TO.P,CON1,4*
G04 #@! TO.N,A2*
X128130000Y-111680000D03*
G04 #@! TO.P,CON1,6*
G04 #@! TO.N,DOT2*
X125590000Y-111680000D03*
G04 #@! TO.P,CON1,8*
G04 #@! TO.N,F2*
X123050000Y-111680000D03*
G04 #@! TO.P,CON1,10*
G04 #@! TO.N,G2*
X120510000Y-111680000D03*
G04 #@! TO.P,CON1,12*
G04 #@! TO.N,G1*
X117970000Y-111680000D03*
G04 #@! TO.P,CON1,14*
G04 #@! TO.N,C1*
X115430000Y-111680000D03*
G04 #@! TO.P,CON1,16*
G04 #@! TO.N,DP1*
X112890000Y-111680000D03*
G04 #@! TO.P,CON1,18*
G04 #@! TO.N,D1*
X110350000Y-111680000D03*
G04 #@! TO.P,CON1,20*
G04 #@! TO.N,E1*
X107810000Y-111680000D03*
G04 #@! TO.P,CON1,19*
G04 #@! TO.N,GND1_1*
X107810000Y-114220000D03*
G04 #@! TO.P,CON1,17*
G04 #@! TO.N,A1*
X110350000Y-114220000D03*
G04 #@! TO.P,CON1,15*
G04 #@! TO.N,F1*
X112890000Y-114220000D03*
G04 #@! TO.P,CON1,13*
G04 #@! TO.N,GND1_2*
X115430000Y-114220000D03*
G04 #@! TO.P,CON1,11*
G04 #@! TO.N,GND1_3*
X117970000Y-114220000D03*
G04 #@! TO.P,CON1,9*
G04 #@! TO.N,B1*
X120510000Y-114220000D03*
G04 #@! TO.P,CON1,7*
G04 #@! TO.N,GND2*
X123050000Y-114220000D03*
G04 #@! TO.P,CON1,5*
G04 #@! TO.N,E2*
X125590000Y-114220000D03*
G04 #@! TO.P,CON1,3*
G04 #@! TO.N,D2*
X128130000Y-114220000D03*
G04 #@! TO.P,CON1,1*
G04 #@! TO.N,C2*
X130670000Y-114220000D03*
G04 #@! TD*
G04 #@! TO.P,D1,12*
G04 #@! TO.N,GND1_1*
X101780000Y-67920000D03*
G04 #@! TO.P,D1,11*
G04 #@! TO.N,A1*
X104320000Y-67920000D03*
G04 #@! TO.P,D1,10*
G04 #@! TO.N,F1*
X106860000Y-67920000D03*
G04 #@! TO.P,D1,9*
G04 #@! TO.N,GND1_2*
X109400000Y-67920000D03*
G04 #@! TO.P,D1,8*
G04 #@! TO.N,GND1_3*
X111940000Y-67920000D03*
G04 #@! TO.P,D1,7*
G04 #@! TO.N,B1*
X114480000Y-67920000D03*
G04 #@! TO.P,D1,6*
G04 #@! TO.N,Net-(D1-Pad6)*
X114480000Y-83160000D03*
G04 #@! TO.P,D1,5*
G04 #@! TO.N,G1*
X111940000Y-83160000D03*
G04 #@! TO.P,D1,4*
G04 #@! TO.N,C1*
X109400000Y-83160000D03*
G04 #@! TO.P,D1,3*
G04 #@! TO.N,DP1*
X106860000Y-83160000D03*
G04 #@! TO.P,D1,2*
G04 #@! TO.N,D1*
X104320000Y-83160000D03*
G04 #@! TO.P,D1,1*
G04 #@! TO.N,E1*
X101780000Y-83160000D03*
G04 #@! TD*
G04 #@! TO.P,D2,6*
G04 #@! TO.N,B2*
X170990000Y-66020000D03*
G04 #@! TO.P,D2,5*
G04 #@! TO.N,GND2*
X170990000Y-126120000D03*
G04 #@! TO.P,D2,4*
G04 #@! TO.N,C2*
X168450000Y-126120000D03*
G04 #@! TO.P,D2,3*
G04 #@! TO.N,D2*
X165910000Y-126120000D03*
G04 #@! TO.P,D2,2*
G04 #@! TO.N,E2*
X163370000Y-126120000D03*
G04 #@! TO.P,D2,1*
G04 #@! TO.N,GND2*
X160830000Y-126120000D03*
G04 #@! TO.P,D2,7*
G04 #@! TO.N,A2*
X168450000Y-66020000D03*
G04 #@! TO.P,D2,8*
G04 #@! TO.N,DOT2*
X165910000Y-66020000D03*
G04 #@! TO.P,D2,9*
G04 #@! TO.N,F2*
X163370000Y-66020000D03*
G04 #@! TO.P,D2,10*
G04 #@! TO.N,G2*
X160830000Y-66020000D03*
G04 #@! TD*
D12*
G04 #@! TO.N,GND1_1*
X100780001Y-68919999D02*
X101780000Y-67920000D01*
X100198999Y-69501001D02*
X100780001Y-68919999D01*
X100198999Y-106548999D02*
X100198999Y-69501001D01*
X107950000Y-114300000D02*
X100198999Y-106548999D01*
G04 #@! TO.N,GND1_2*
X112064979Y-117805021D02*
X115570000Y-114300000D01*
X105894981Y-64414981D02*
X100224164Y-64414981D01*
X109400000Y-67920000D02*
X105894981Y-64414981D01*
X100224164Y-64414981D02*
X97135980Y-67503164D01*
X97135980Y-67503164D02*
X97135980Y-108546836D01*
X97135980Y-108546836D02*
X106394165Y-117805021D01*
X106394165Y-117805021D02*
X112064979Y-117805021D01*
G04 #@! TO.N,GND1_3*
X107472971Y-63452971D02*
X110940001Y-66920001D01*
X110940001Y-66920001D02*
X111940000Y-67920000D01*
X118110000Y-114300000D02*
X113642969Y-118767031D01*
X113642969Y-118767031D02*
X105995688Y-118767031D01*
X99825687Y-63452971D02*
X107472971Y-63452971D01*
X96173970Y-108945313D02*
X96173970Y-67104687D01*
X105995688Y-118767031D02*
X96173970Y-108945313D01*
X96173970Y-67104687D02*
X99825687Y-63452971D01*
G04 #@! TO.N,DOT2*
X165910000Y-71580000D02*
X125730000Y-111760000D01*
X165910000Y-66020000D02*
X165910000Y-71580000D01*
G04 #@! TO.N,GND2*
X169990001Y-127119999D02*
X170990000Y-126120000D01*
X169408999Y-127701001D02*
X169990001Y-127119999D01*
X162411001Y-127701001D02*
X169408999Y-127701001D01*
X160830000Y-126120000D02*
X162411001Y-127701001D01*
X135010000Y-126120000D02*
X160830000Y-126120000D01*
X123190000Y-114300000D02*
X135010000Y-126120000D01*
G04 #@! TO.N,E1*
X107950000Y-89330000D02*
X102440000Y-83820000D01*
X107950000Y-111760000D02*
X107950000Y-89330000D01*
G04 #@! TO.N,D1*
X110490000Y-89330000D02*
X104320000Y-83160000D01*
X110490000Y-111760000D02*
X110490000Y-89330000D01*
G04 #@! TO.N,DP1*
X113030000Y-89330000D02*
X106860000Y-83160000D01*
X113030000Y-111760000D02*
X113030000Y-89330000D01*
G04 #@! TO.N,C1*
X115570000Y-89330000D02*
X109400000Y-83160000D01*
X115570000Y-111760000D02*
X115570000Y-89330000D01*
G04 #@! TO.N,G1*
X118110000Y-89330000D02*
X111940000Y-83160000D01*
X118110000Y-111760000D02*
X118110000Y-89330000D01*
G04 #@! TO.N,B1*
X115220959Y-119729041D02*
X105597211Y-119729040D01*
X95211961Y-109343790D02*
X95211962Y-66706209D01*
X120650000Y-114300000D02*
X115220959Y-119729041D01*
X105597211Y-119729040D02*
X95211961Y-109343790D01*
X95211962Y-66706209D02*
X99427210Y-62490961D01*
X109050961Y-62490961D02*
X114480000Y-67920000D01*
X99427210Y-62490961D02*
X109050961Y-62490961D01*
G04 #@! TO.N,F1*
X105860001Y-66920001D02*
X106860000Y-67920000D01*
X104316989Y-65376989D02*
X105860001Y-66920001D01*
X100622642Y-65376989D02*
X104316989Y-65376989D01*
X98097990Y-67901641D02*
X100622642Y-65376989D01*
X98097990Y-108148359D02*
X98097990Y-67901641D01*
X106792642Y-116843011D02*
X98097990Y-108148359D01*
X110486989Y-116843011D02*
X106792642Y-116843011D01*
X113030000Y-114300000D02*
X110486989Y-116843011D01*
G04 #@! TO.N,A1*
X102738999Y-66338999D02*
X103320001Y-66920001D01*
X101021119Y-66338999D02*
X102738999Y-66338999D01*
X99060000Y-68300118D02*
X101021119Y-66338999D01*
X103320001Y-66920001D02*
X104320000Y-67920000D01*
X107191119Y-115881001D02*
X99060000Y-107749882D01*
X108908999Y-115881001D02*
X107191119Y-115881001D01*
X110490000Y-114300000D02*
X108908999Y-115881001D01*
X99060000Y-107749882D02*
X99060000Y-106680000D01*
X99060000Y-106770486D02*
X99060000Y-106680000D01*
X99060000Y-106680000D02*
X99060000Y-68300118D01*
G04 #@! TO.N,B2*
X170990000Y-71580000D02*
X130810000Y-111760000D01*
X170990000Y-66020000D02*
X170990000Y-71580000D01*
G04 #@! TO.N,C2*
X130810000Y-114300000D02*
X138430000Y-121920000D01*
X164250000Y-121920000D02*
X168450000Y-126120000D01*
X138430000Y-121920000D02*
X164250000Y-121920000D01*
G04 #@! TO.N,D2*
X164910001Y-125120001D02*
X165910000Y-126120000D01*
X163366989Y-123576989D02*
X164910001Y-125120001D01*
X137546989Y-123576989D02*
X163366989Y-123576989D01*
X128270000Y-114300000D02*
X137546989Y-123576989D01*
G04 #@! TO.N,E2*
X162370001Y-125120001D02*
X163370000Y-126120000D01*
X161788999Y-124538999D02*
X162370001Y-125120001D01*
X135968999Y-124538999D02*
X161788999Y-124538999D01*
X125730000Y-114300000D02*
X135968999Y-124538999D01*
G04 #@! TO.N,A2*
X168450000Y-71580000D02*
X128270000Y-111760000D01*
X168450000Y-66020000D02*
X168450000Y-71580000D01*
G04 #@! TO.N,F2*
X163370000Y-66020000D02*
X163370000Y-71580000D01*
X123190000Y-111760000D02*
X163370000Y-71580000D01*
G04 #@! TO.N,G2*
X160830000Y-66020000D02*
X160830000Y-71580000D01*
X160830000Y-71580000D02*
X120650000Y-111760000D01*
G04 #@! TD*
M02*
