G04 #@! TF.GenerationSoftware,KiCad,Pcbnew,5.1.5-52549c5~84~ubuntu18.04.1*
G04 #@! TF.CreationDate,2020-03-14T11:46:24+01:00*
G04 #@! TF.ProjectId,Fe203,46653230-332e-46b6-9963-61645f706362,rev?*
G04 #@! TF.SameCoordinates,Original*
G04 #@! TF.FileFunction,Legend,Bot*
G04 #@! TF.FilePolarity,Positive*
%FSLAX46Y46*%
G04 Gerber Fmt 4.6, Leading zero omitted, Abs format (unit mm)*
G04 Created by KiCad (PCBNEW 5.1.5-52549c5~84~ubuntu18.04.1) date 2020-03-14 11:46:24*
%MOMM*%
%LPD*%
G04 APERTURE LIST*
%ADD10C,0.300000*%
G04 #@! TA.AperFunction,Profile*
%ADD11C,0.200000*%
G04 #@! TD*
%ADD12C,0.120000*%
%ADD13C,1.000000*%
%ADD14C,0.010000*%
%ADD15C,0.150000*%
G04 APERTURE END LIST*
D10*
X198611428Y-104032857D02*
X199111428Y-104032857D01*
X199111428Y-104818571D02*
X199111428Y-103318571D01*
X198397142Y-103318571D01*
X197254285Y-104747142D02*
X197397142Y-104818571D01*
X197682857Y-104818571D01*
X197825714Y-104747142D01*
X197897142Y-104604285D01*
X197897142Y-104032857D01*
X197825714Y-103890000D01*
X197682857Y-103818571D01*
X197397142Y-103818571D01*
X197254285Y-103890000D01*
X197182857Y-104032857D01*
X197182857Y-104175714D01*
X197897142Y-104318571D01*
X196611428Y-103461428D02*
X196540000Y-103390000D01*
X196397142Y-103318571D01*
X196040000Y-103318571D01*
X195897142Y-103390000D01*
X195825714Y-103461428D01*
X195754285Y-103604285D01*
X195754285Y-103747142D01*
X195825714Y-103961428D01*
X196682857Y-104818571D01*
X195754285Y-104818571D01*
X194825714Y-103318571D02*
X194682857Y-103318571D01*
X194540000Y-103390000D01*
X194468571Y-103461428D01*
X194397142Y-103604285D01*
X194325714Y-103890000D01*
X194325714Y-104247142D01*
X194397142Y-104532857D01*
X194468571Y-104675714D01*
X194540000Y-104747142D01*
X194682857Y-104818571D01*
X194825714Y-104818571D01*
X194968571Y-104747142D01*
X195040000Y-104675714D01*
X195111428Y-104532857D01*
X195182857Y-104247142D01*
X195182857Y-103890000D01*
X195111428Y-103604285D01*
X195040000Y-103461428D01*
X194968571Y-103390000D01*
X194825714Y-103318571D01*
X193825714Y-103318571D02*
X192897142Y-103318571D01*
X193397142Y-103890000D01*
X193182857Y-103890000D01*
X193040000Y-103961428D01*
X192968571Y-104032857D01*
X192897142Y-104175714D01*
X192897142Y-104532857D01*
X192968571Y-104675714D01*
X193040000Y-104747142D01*
X193182857Y-104818571D01*
X193611428Y-104818571D01*
X193754285Y-104747142D01*
X193825714Y-104675714D01*
X191325714Y-103318571D02*
X190825714Y-104818571D01*
X190325714Y-103318571D01*
X189040000Y-104818571D02*
X189897142Y-104818571D01*
X189468571Y-104818571D02*
X189468571Y-103318571D01*
X189611428Y-103532857D01*
X189754285Y-103675714D01*
X189897142Y-103747142D01*
X188397142Y-104675714D02*
X188325714Y-104747142D01*
X188397142Y-104818571D01*
X188468571Y-104747142D01*
X188397142Y-104675714D01*
X188397142Y-104818571D01*
X187397142Y-103318571D02*
X187254285Y-103318571D01*
X187111428Y-103390000D01*
X187040000Y-103461428D01*
X186968571Y-103604285D01*
X186897142Y-103890000D01*
X186897142Y-104247142D01*
X186968571Y-104532857D01*
X187040000Y-104675714D01*
X187111428Y-104747142D01*
X187254285Y-104818571D01*
X187397142Y-104818571D01*
X187540000Y-104747142D01*
X187611428Y-104675714D01*
X187682857Y-104532857D01*
X187754285Y-104247142D01*
X187754285Y-103890000D01*
X187682857Y-103604285D01*
X187611428Y-103461428D01*
X187540000Y-103390000D01*
X187397142Y-103318571D01*
D11*
X106325985Y-137454210D02*
X107730129Y-138030000D01*
X64310008Y-95193254D02*
X64905850Y-96617463D01*
X214909985Y-56030000D02*
X123910000Y-56030000D01*
X209409985Y-59030000D02*
G75*
G03X209409985Y-59030000I-1500000J0D01*
G01*
X85410000Y-109030000D02*
G75*
G03X85410000Y-109030000I-1500000J0D01*
G01*
X107730129Y-138030000D02*
X216909985Y-138030000D01*
X64310009Y-63030001D02*
G75*
G02X66310008Y-61030000I2000000J1D01*
G01*
X64905850Y-96617463D02*
X106325985Y-137454210D01*
X121910000Y-58030000D02*
X121910000Y-59030000D01*
X119910000Y-61030000D02*
X66310009Y-61030000D01*
X214909985Y-56030000D02*
G75*
G02X216909985Y-58030000I0J-2000000D01*
G01*
X121910000Y-58030001D02*
G75*
G02X123909999Y-56030000I2000000J1D01*
G01*
X121910000Y-59030001D02*
G75*
G02X119909999Y-61030000I-2000000J1D01*
G01*
X64310008Y-95193254D02*
X64310008Y-63030000D01*
X216909985Y-58030000D02*
X216909985Y-138030000D01*
X213409985Y-133030000D02*
G75*
G03X213409985Y-133030000I-1500000J0D01*
G01*
X127410000Y-59030000D02*
G75*
G03X127410000Y-59030000I-1500000J0D01*
G01*
D12*
G04 #@! TO.C,CON1*
X134480000Y-108475000D02*
X134480000Y-117425000D01*
X103880000Y-108475000D02*
X103880000Y-117425000D01*
X134480000Y-108475000D02*
X103880000Y-108475000D01*
X134480000Y-117425000D02*
X103880000Y-117425000D01*
D13*
X131343783Y-118850000D02*
G75*
G03X131343783Y-118850000I-543783J0D01*
G01*
D14*
G04 #@! TO.C,G\002A\002A\002A*
G36*
X160813811Y-95365451D02*
G01*
X160763481Y-95365912D01*
X160631089Y-95366752D01*
X160423379Y-95367935D01*
X160147101Y-95369427D01*
X159809001Y-95371193D01*
X159415825Y-95373199D01*
X158974321Y-95375410D01*
X158491236Y-95377792D01*
X157973317Y-95380309D01*
X157427311Y-95382927D01*
X157205857Y-95383980D01*
X156651930Y-95386997D01*
X156124381Y-95390634D01*
X155629844Y-95394798D01*
X155174955Y-95399399D01*
X154766350Y-95404344D01*
X154410666Y-95409542D01*
X154114537Y-95414902D01*
X153884600Y-95420331D01*
X153727491Y-95425739D01*
X153649845Y-95431034D01*
X153642520Y-95433144D01*
X153673340Y-95468568D01*
X153762732Y-95562023D01*
X153906194Y-95709020D01*
X154099222Y-95905070D01*
X154337313Y-96145684D01*
X154615962Y-96426372D01*
X154930667Y-96742645D01*
X155276924Y-97090014D01*
X155650229Y-97463991D01*
X156046079Y-97860085D01*
X156459971Y-98273807D01*
X156887401Y-98700669D01*
X157323865Y-99136180D01*
X157764860Y-99575853D01*
X158205884Y-100015197D01*
X158642431Y-100449724D01*
X159069999Y-100874944D01*
X159484084Y-101286368D01*
X159880182Y-101679507D01*
X160253791Y-102049872D01*
X160600407Y-102392973D01*
X160915526Y-102704321D01*
X161194644Y-102979428D01*
X161433259Y-103213804D01*
X161626867Y-103402959D01*
X161770964Y-103542405D01*
X161861047Y-103627652D01*
X161881933Y-103646422D01*
X162276925Y-103961627D01*
X162662138Y-104211841D01*
X163065739Y-104412368D01*
X163515897Y-104578511D01*
X163700598Y-104634537D01*
X163785455Y-104658533D01*
X163868976Y-104680335D01*
X163955611Y-104700054D01*
X164049815Y-104717802D01*
X164156038Y-104733690D01*
X164278735Y-104747829D01*
X164422356Y-104760332D01*
X164591355Y-104771308D01*
X164790183Y-104780871D01*
X165023294Y-104789130D01*
X165295140Y-104796198D01*
X165610173Y-104802186D01*
X165972846Y-104807205D01*
X166387611Y-104811366D01*
X166858921Y-104814782D01*
X167391228Y-104817563D01*
X167988984Y-104819821D01*
X168656642Y-104821668D01*
X169398654Y-104823213D01*
X170219473Y-104824570D01*
X171123551Y-104825850D01*
X171360140Y-104826166D01*
X172124122Y-104827091D01*
X172865735Y-104827809D01*
X173579932Y-104828324D01*
X174261663Y-104828639D01*
X174905881Y-104828759D01*
X175507538Y-104828685D01*
X176061585Y-104828423D01*
X176562973Y-104827976D01*
X177006656Y-104827347D01*
X177387585Y-104826540D01*
X177700711Y-104825558D01*
X177940986Y-104824405D01*
X178103362Y-104823085D01*
X178182791Y-104821600D01*
X178187500Y-104821345D01*
X178302448Y-104806570D01*
X178368544Y-104785542D01*
X178374912Y-104776940D01*
X178343525Y-104733744D01*
X178256296Y-104637892D01*
X178121821Y-104497771D01*
X177948699Y-104321769D01*
X177745525Y-104118273D01*
X177520898Y-103895671D01*
X177283413Y-103662350D01*
X177041669Y-103426697D01*
X176804261Y-103197101D01*
X176579788Y-102981948D01*
X176376846Y-102789625D01*
X176204032Y-102628521D01*
X176069944Y-102507022D01*
X175983178Y-102433517D01*
X175953841Y-102414895D01*
X175914428Y-102387950D01*
X175838426Y-102322092D01*
X175827722Y-102312237D01*
X175712901Y-102223354D01*
X175572714Y-102136604D01*
X175547900Y-102123514D01*
X175438430Y-102064920D01*
X175367068Y-102021416D01*
X175356643Y-102012901D01*
X175262888Y-101941695D01*
X175106707Y-101856835D01*
X174910991Y-101769328D01*
X174698633Y-101690184D01*
X174657849Y-101676859D01*
X174527559Y-101635353D01*
X174408854Y-101598628D01*
X174295683Y-101566357D01*
X174181997Y-101538214D01*
X174061744Y-101513871D01*
X173928875Y-101493003D01*
X173777339Y-101475283D01*
X173601086Y-101460385D01*
X173394065Y-101447981D01*
X173150225Y-101437746D01*
X172863517Y-101429354D01*
X172527890Y-101422476D01*
X172137294Y-101416788D01*
X171685678Y-101411963D01*
X171166991Y-101407673D01*
X170575184Y-101403593D01*
X169904205Y-101399396D01*
X169466511Y-101396719D01*
X165330400Y-101371364D01*
X164895121Y-100949510D01*
X164701658Y-100763285D01*
X164499286Y-100570611D01*
X164312372Y-100394570D01*
X164168819Y-100261479D01*
X164033252Y-100135329D01*
X163851760Y-99963357D01*
X163637945Y-99758751D01*
X163405408Y-99534696D01*
X163167751Y-99304378D01*
X162938576Y-99080981D01*
X162731483Y-98877693D01*
X162560075Y-98707698D01*
X162437952Y-98584183D01*
X162427930Y-98573811D01*
X162256883Y-98396189D01*
X165398634Y-98371939D01*
X166113746Y-98365724D01*
X166741502Y-98358795D01*
X167281702Y-98351155D01*
X167734145Y-98342810D01*
X168098631Y-98333764D01*
X168374961Y-98324022D01*
X168562934Y-98313587D01*
X168662350Y-98302464D01*
X168673601Y-98299484D01*
X168865012Y-98223085D01*
X168986996Y-98154504D01*
X169056952Y-98082891D01*
X169075071Y-98049147D01*
X169149478Y-97953751D01*
X169217570Y-97908299D01*
X169294364Y-97854867D01*
X169317482Y-97809949D01*
X169352457Y-97747947D01*
X169406294Y-97707902D01*
X169477438Y-97634647D01*
X169495105Y-97573123D01*
X169513278Y-97501807D01*
X169537799Y-97485874D01*
X169573481Y-97447013D01*
X169613364Y-97349085D01*
X169628126Y-97297150D01*
X169667223Y-97156156D01*
X169705771Y-97038048D01*
X169714679Y-97015138D01*
X169726074Y-96927957D01*
X169718036Y-96789627D01*
X169695024Y-96622472D01*
X169661497Y-96448814D01*
X169621914Y-96290976D01*
X169580733Y-96171279D01*
X169542413Y-96112046D01*
X169533739Y-96109301D01*
X169501891Y-96072222D01*
X169495105Y-96024190D01*
X169480057Y-95946412D01*
X169461801Y-95924277D01*
X169422155Y-95879390D01*
X169360781Y-95783274D01*
X169331701Y-95731853D01*
X169303903Y-95676380D01*
X169281087Y-95627456D01*
X169257835Y-95584651D01*
X169228727Y-95547533D01*
X169188348Y-95515670D01*
X169131278Y-95488631D01*
X169052101Y-95465984D01*
X168945398Y-95447298D01*
X168805751Y-95432142D01*
X168627743Y-95420083D01*
X168405957Y-95410690D01*
X168134974Y-95403532D01*
X167809376Y-95398176D01*
X167423746Y-95394193D01*
X166972666Y-95391149D01*
X166450718Y-95388614D01*
X165852485Y-95386156D01*
X165172548Y-95383343D01*
X164943531Y-95382328D01*
X164348407Y-95379651D01*
X163778387Y-95377124D01*
X163239759Y-95374774D01*
X162738812Y-95372626D01*
X162281832Y-95370707D01*
X161875110Y-95369042D01*
X161524932Y-95367656D01*
X161237588Y-95366576D01*
X161019365Y-95365826D01*
X160876551Y-95365433D01*
X160815435Y-95365423D01*
X160813811Y-95365451D01*
G37*
X160813811Y-95365451D02*
X160763481Y-95365912D01*
X160631089Y-95366752D01*
X160423379Y-95367935D01*
X160147101Y-95369427D01*
X159809001Y-95371193D01*
X159415825Y-95373199D01*
X158974321Y-95375410D01*
X158491236Y-95377792D01*
X157973317Y-95380309D01*
X157427311Y-95382927D01*
X157205857Y-95383980D01*
X156651930Y-95386997D01*
X156124381Y-95390634D01*
X155629844Y-95394798D01*
X155174955Y-95399399D01*
X154766350Y-95404344D01*
X154410666Y-95409542D01*
X154114537Y-95414902D01*
X153884600Y-95420331D01*
X153727491Y-95425739D01*
X153649845Y-95431034D01*
X153642520Y-95433144D01*
X153673340Y-95468568D01*
X153762732Y-95562023D01*
X153906194Y-95709020D01*
X154099222Y-95905070D01*
X154337313Y-96145684D01*
X154615962Y-96426372D01*
X154930667Y-96742645D01*
X155276924Y-97090014D01*
X155650229Y-97463991D01*
X156046079Y-97860085D01*
X156459971Y-98273807D01*
X156887401Y-98700669D01*
X157323865Y-99136180D01*
X157764860Y-99575853D01*
X158205884Y-100015197D01*
X158642431Y-100449724D01*
X159069999Y-100874944D01*
X159484084Y-101286368D01*
X159880182Y-101679507D01*
X160253791Y-102049872D01*
X160600407Y-102392973D01*
X160915526Y-102704321D01*
X161194644Y-102979428D01*
X161433259Y-103213804D01*
X161626867Y-103402959D01*
X161770964Y-103542405D01*
X161861047Y-103627652D01*
X161881933Y-103646422D01*
X162276925Y-103961627D01*
X162662138Y-104211841D01*
X163065739Y-104412368D01*
X163515897Y-104578511D01*
X163700598Y-104634537D01*
X163785455Y-104658533D01*
X163868976Y-104680335D01*
X163955611Y-104700054D01*
X164049815Y-104717802D01*
X164156038Y-104733690D01*
X164278735Y-104747829D01*
X164422356Y-104760332D01*
X164591355Y-104771308D01*
X164790183Y-104780871D01*
X165023294Y-104789130D01*
X165295140Y-104796198D01*
X165610173Y-104802186D01*
X165972846Y-104807205D01*
X166387611Y-104811366D01*
X166858921Y-104814782D01*
X167391228Y-104817563D01*
X167988984Y-104819821D01*
X168656642Y-104821668D01*
X169398654Y-104823213D01*
X170219473Y-104824570D01*
X171123551Y-104825850D01*
X171360140Y-104826166D01*
X172124122Y-104827091D01*
X172865735Y-104827809D01*
X173579932Y-104828324D01*
X174261663Y-104828639D01*
X174905881Y-104828759D01*
X175507538Y-104828685D01*
X176061585Y-104828423D01*
X176562973Y-104827976D01*
X177006656Y-104827347D01*
X177387585Y-104826540D01*
X177700711Y-104825558D01*
X177940986Y-104824405D01*
X178103362Y-104823085D01*
X178182791Y-104821600D01*
X178187500Y-104821345D01*
X178302448Y-104806570D01*
X178368544Y-104785542D01*
X178374912Y-104776940D01*
X178343525Y-104733744D01*
X178256296Y-104637892D01*
X178121821Y-104497771D01*
X177948699Y-104321769D01*
X177745525Y-104118273D01*
X177520898Y-103895671D01*
X177283413Y-103662350D01*
X177041669Y-103426697D01*
X176804261Y-103197101D01*
X176579788Y-102981948D01*
X176376846Y-102789625D01*
X176204032Y-102628521D01*
X176069944Y-102507022D01*
X175983178Y-102433517D01*
X175953841Y-102414895D01*
X175914428Y-102387950D01*
X175838426Y-102322092D01*
X175827722Y-102312237D01*
X175712901Y-102223354D01*
X175572714Y-102136604D01*
X175547900Y-102123514D01*
X175438430Y-102064920D01*
X175367068Y-102021416D01*
X175356643Y-102012901D01*
X175262888Y-101941695D01*
X175106707Y-101856835D01*
X174910991Y-101769328D01*
X174698633Y-101690184D01*
X174657849Y-101676859D01*
X174527559Y-101635353D01*
X174408854Y-101598628D01*
X174295683Y-101566357D01*
X174181997Y-101538214D01*
X174061744Y-101513871D01*
X173928875Y-101493003D01*
X173777339Y-101475283D01*
X173601086Y-101460385D01*
X173394065Y-101447981D01*
X173150225Y-101437746D01*
X172863517Y-101429354D01*
X172527890Y-101422476D01*
X172137294Y-101416788D01*
X171685678Y-101411963D01*
X171166991Y-101407673D01*
X170575184Y-101403593D01*
X169904205Y-101399396D01*
X169466511Y-101396719D01*
X165330400Y-101371364D01*
X164895121Y-100949510D01*
X164701658Y-100763285D01*
X164499286Y-100570611D01*
X164312372Y-100394570D01*
X164168819Y-100261479D01*
X164033252Y-100135329D01*
X163851760Y-99963357D01*
X163637945Y-99758751D01*
X163405408Y-99534696D01*
X163167751Y-99304378D01*
X162938576Y-99080981D01*
X162731483Y-98877693D01*
X162560075Y-98707698D01*
X162437952Y-98584183D01*
X162427930Y-98573811D01*
X162256883Y-98396189D01*
X165398634Y-98371939D01*
X166113746Y-98365724D01*
X166741502Y-98358795D01*
X167281702Y-98351155D01*
X167734145Y-98342810D01*
X168098631Y-98333764D01*
X168374961Y-98324022D01*
X168562934Y-98313587D01*
X168662350Y-98302464D01*
X168673601Y-98299484D01*
X168865012Y-98223085D01*
X168986996Y-98154504D01*
X169056952Y-98082891D01*
X169075071Y-98049147D01*
X169149478Y-97953751D01*
X169217570Y-97908299D01*
X169294364Y-97854867D01*
X169317482Y-97809949D01*
X169352457Y-97747947D01*
X169406294Y-97707902D01*
X169477438Y-97634647D01*
X169495105Y-97573123D01*
X169513278Y-97501807D01*
X169537799Y-97485874D01*
X169573481Y-97447013D01*
X169613364Y-97349085D01*
X169628126Y-97297150D01*
X169667223Y-97156156D01*
X169705771Y-97038048D01*
X169714679Y-97015138D01*
X169726074Y-96927957D01*
X169718036Y-96789627D01*
X169695024Y-96622472D01*
X169661497Y-96448814D01*
X169621914Y-96290976D01*
X169580733Y-96171279D01*
X169542413Y-96112046D01*
X169533739Y-96109301D01*
X169501891Y-96072222D01*
X169495105Y-96024190D01*
X169480057Y-95946412D01*
X169461801Y-95924277D01*
X169422155Y-95879390D01*
X169360781Y-95783274D01*
X169331701Y-95731853D01*
X169303903Y-95676380D01*
X169281087Y-95627456D01*
X169257835Y-95584651D01*
X169228727Y-95547533D01*
X169188348Y-95515670D01*
X169131278Y-95488631D01*
X169052101Y-95465984D01*
X168945398Y-95447298D01*
X168805751Y-95432142D01*
X168627743Y-95420083D01*
X168405957Y-95410690D01*
X168134974Y-95403532D01*
X167809376Y-95398176D01*
X167423746Y-95394193D01*
X166972666Y-95391149D01*
X166450718Y-95388614D01*
X165852485Y-95386156D01*
X165172548Y-95383343D01*
X164943531Y-95382328D01*
X164348407Y-95379651D01*
X163778387Y-95377124D01*
X163239759Y-95374774D01*
X162738812Y-95372626D01*
X162281832Y-95370707D01*
X161875110Y-95369042D01*
X161524932Y-95367656D01*
X161237588Y-95366576D01*
X161019365Y-95365826D01*
X160876551Y-95365433D01*
X160815435Y-95365423D01*
X160813811Y-95365451D01*
G36*
X148683742Y-87260773D02*
G01*
X148445402Y-87292219D01*
X148180993Y-87335267D01*
X147910591Y-87386780D01*
X147654269Y-87443623D01*
X147529277Y-87475296D01*
X146889464Y-87687815D01*
X146286437Y-87974577D01*
X145715185Y-88338798D01*
X145170693Y-88783696D01*
X144647951Y-89312487D01*
X144623017Y-89340375D01*
X144568913Y-89404789D01*
X144467216Y-89529280D01*
X144325524Y-89704343D01*
X144151431Y-89920476D01*
X143952534Y-90168171D01*
X143736429Y-90437926D01*
X143510712Y-90720235D01*
X143282979Y-91005593D01*
X143060826Y-91284497D01*
X142851850Y-91547440D01*
X142663645Y-91784920D01*
X142503808Y-91987430D01*
X142379936Y-92145466D01*
X142336352Y-92201608D01*
X141898326Y-92820134D01*
X141548365Y-93427671D01*
X141286417Y-94024319D01*
X141120722Y-94573912D01*
X141073924Y-94760391D01*
X141027210Y-94922793D01*
X140988383Y-95034738D01*
X140977346Y-95058513D01*
X140945618Y-95152597D01*
X140910956Y-95314280D01*
X140876323Y-95522546D01*
X140844687Y-95756381D01*
X140819011Y-95994768D01*
X140802260Y-96216691D01*
X140797766Y-96331329D01*
X140805242Y-96517398D01*
X140831472Y-96744817D01*
X140872230Y-96993915D01*
X140923284Y-97245017D01*
X140980408Y-97478450D01*
X141039371Y-97674543D01*
X141095944Y-97813621D01*
X141126608Y-97861101D01*
X141161297Y-97940865D01*
X141164609Y-97972115D01*
X141165489Y-97999217D01*
X141171577Y-98029148D01*
X141188394Y-98072675D01*
X141221460Y-98140563D01*
X141276296Y-98243575D01*
X141358422Y-98392478D01*
X141473358Y-98598035D01*
X141614740Y-98849849D01*
X141728696Y-99046786D01*
X141845708Y-99234858D01*
X141971462Y-99420568D01*
X142111642Y-99610418D01*
X142271935Y-99810910D01*
X142458025Y-100028547D01*
X142675599Y-100269830D01*
X142930340Y-100541261D01*
X143227936Y-100849344D01*
X143574071Y-101200579D01*
X143974430Y-101601470D01*
X144327441Y-101952253D01*
X144703834Y-102324477D01*
X145024625Y-102639478D01*
X145296465Y-102903371D01*
X145526008Y-103122273D01*
X145719903Y-103302300D01*
X145884802Y-103449569D01*
X146027357Y-103570195D01*
X146154220Y-103670296D01*
X146272042Y-103755987D01*
X146337587Y-103800650D01*
X146757711Y-104060600D01*
X147172084Y-104272461D01*
X147605320Y-104446343D01*
X148082029Y-104592355D01*
X148523527Y-104698574D01*
X149046329Y-104812373D01*
X155429636Y-104823687D01*
X156174999Y-104824856D01*
X156895664Y-104825690D01*
X157586673Y-104826197D01*
X158243068Y-104826386D01*
X158859891Y-104826264D01*
X159432182Y-104825841D01*
X159954985Y-104825125D01*
X160423341Y-104824124D01*
X160832291Y-104822847D01*
X161176879Y-104821302D01*
X161452144Y-104819498D01*
X161653130Y-104817443D01*
X161774878Y-104815146D01*
X161812645Y-104812797D01*
X161782112Y-104778082D01*
X161694485Y-104686512D01*
X161555552Y-104543953D01*
X161371097Y-104356267D01*
X161146908Y-104129321D01*
X160888769Y-103868977D01*
X160602469Y-103581101D01*
X160293791Y-103271557D01*
X160147757Y-103125385D01*
X158483168Y-101460175D01*
X154053385Y-101437009D01*
X153285158Y-101432740D01*
X152601612Y-101428376D01*
X151998613Y-101423846D01*
X151472032Y-101419079D01*
X151017736Y-101414004D01*
X150631593Y-101408551D01*
X150309473Y-101402647D01*
X150047244Y-101396222D01*
X149840774Y-101389204D01*
X149685932Y-101381524D01*
X149578587Y-101373108D01*
X149514606Y-101363887D01*
X149496735Y-101358593D01*
X149437676Y-101315216D01*
X149323360Y-101214987D01*
X149160539Y-101064633D01*
X148955963Y-100870884D01*
X148716383Y-100640465D01*
X148448552Y-100380104D01*
X148159220Y-100096531D01*
X147855139Y-99796471D01*
X147543059Y-99486653D01*
X147229733Y-99173805D01*
X146921911Y-98864655D01*
X146626346Y-98565929D01*
X146349787Y-98284356D01*
X146098986Y-98026663D01*
X145880696Y-97799579D01*
X145701666Y-97609830D01*
X145568648Y-97464145D01*
X145488394Y-97369252D01*
X145475249Y-97351147D01*
X145378729Y-97187099D01*
X145298574Y-97016304D01*
X145261108Y-96907091D01*
X145231205Y-96720892D01*
X145218940Y-96491949D01*
X145223222Y-96248370D01*
X145242958Y-96018264D01*
X145277056Y-95829737D01*
X145306336Y-95742954D01*
X145374147Y-95592835D01*
X145438458Y-95446612D01*
X145444691Y-95432115D01*
X145486297Y-95365222D01*
X145578039Y-95237319D01*
X145713775Y-95056096D01*
X145887365Y-94829248D01*
X146092664Y-94564466D01*
X146323532Y-94269442D01*
X146573826Y-93951869D01*
X146837404Y-93619440D01*
X147108123Y-93279845D01*
X147379843Y-92940779D01*
X147646420Y-92609933D01*
X147901712Y-92294999D01*
X148139578Y-92003670D01*
X148353875Y-91743638D01*
X148538461Y-91522596D01*
X148687194Y-91348235D01*
X148793932Y-91228248D01*
X148836112Y-91184741D01*
X149014727Y-91035299D01*
X149220897Y-90894033D01*
X149377474Y-90807293D01*
X149668007Y-90669615D01*
X156961626Y-90657994D01*
X157759041Y-90656527D01*
X158532007Y-90654721D01*
X159275893Y-90652604D01*
X159986065Y-90650203D01*
X160657890Y-90647548D01*
X161286735Y-90644667D01*
X161867968Y-90641587D01*
X162396954Y-90638337D01*
X162869062Y-90634945D01*
X163279658Y-90631440D01*
X163624109Y-90627849D01*
X163897782Y-90624201D01*
X164096044Y-90620525D01*
X164214263Y-90616848D01*
X164248402Y-90613588D01*
X164216425Y-90576981D01*
X164127070Y-90483894D01*
X163986190Y-90340212D01*
X163799640Y-90151819D01*
X163573272Y-89924600D01*
X163312941Y-89664438D01*
X163024499Y-89377217D01*
X162713801Y-89068822D01*
X162570297Y-88926696D01*
X160899035Y-87272587D01*
X155017087Y-87267524D01*
X154299282Y-87266779D01*
X153604614Y-87265809D01*
X152938405Y-87264634D01*
X152305978Y-87263274D01*
X151712656Y-87261748D01*
X151163761Y-87260077D01*
X150664616Y-87258280D01*
X150220544Y-87256376D01*
X149836867Y-87254385D01*
X149518907Y-87252328D01*
X149271989Y-87250224D01*
X149101433Y-87248092D01*
X149012563Y-87245953D01*
X149001923Y-87245230D01*
X148875941Y-87244065D01*
X148683742Y-87260773D01*
G37*
X148683742Y-87260773D02*
X148445402Y-87292219D01*
X148180993Y-87335267D01*
X147910591Y-87386780D01*
X147654269Y-87443623D01*
X147529277Y-87475296D01*
X146889464Y-87687815D01*
X146286437Y-87974577D01*
X145715185Y-88338798D01*
X145170693Y-88783696D01*
X144647951Y-89312487D01*
X144623017Y-89340375D01*
X144568913Y-89404789D01*
X144467216Y-89529280D01*
X144325524Y-89704343D01*
X144151431Y-89920476D01*
X143952534Y-90168171D01*
X143736429Y-90437926D01*
X143510712Y-90720235D01*
X143282979Y-91005593D01*
X143060826Y-91284497D01*
X142851850Y-91547440D01*
X142663645Y-91784920D01*
X142503808Y-91987430D01*
X142379936Y-92145466D01*
X142336352Y-92201608D01*
X141898326Y-92820134D01*
X141548365Y-93427671D01*
X141286417Y-94024319D01*
X141120722Y-94573912D01*
X141073924Y-94760391D01*
X141027210Y-94922793D01*
X140988383Y-95034738D01*
X140977346Y-95058513D01*
X140945618Y-95152597D01*
X140910956Y-95314280D01*
X140876323Y-95522546D01*
X140844687Y-95756381D01*
X140819011Y-95994768D01*
X140802260Y-96216691D01*
X140797766Y-96331329D01*
X140805242Y-96517398D01*
X140831472Y-96744817D01*
X140872230Y-96993915D01*
X140923284Y-97245017D01*
X140980408Y-97478450D01*
X141039371Y-97674543D01*
X141095944Y-97813621D01*
X141126608Y-97861101D01*
X141161297Y-97940865D01*
X141164609Y-97972115D01*
X141165489Y-97999217D01*
X141171577Y-98029148D01*
X141188394Y-98072675D01*
X141221460Y-98140563D01*
X141276296Y-98243575D01*
X141358422Y-98392478D01*
X141473358Y-98598035D01*
X141614740Y-98849849D01*
X141728696Y-99046786D01*
X141845708Y-99234858D01*
X141971462Y-99420568D01*
X142111642Y-99610418D01*
X142271935Y-99810910D01*
X142458025Y-100028547D01*
X142675599Y-100269830D01*
X142930340Y-100541261D01*
X143227936Y-100849344D01*
X143574071Y-101200579D01*
X143974430Y-101601470D01*
X144327441Y-101952253D01*
X144703834Y-102324477D01*
X145024625Y-102639478D01*
X145296465Y-102903371D01*
X145526008Y-103122273D01*
X145719903Y-103302300D01*
X145884802Y-103449569D01*
X146027357Y-103570195D01*
X146154220Y-103670296D01*
X146272042Y-103755987D01*
X146337587Y-103800650D01*
X146757711Y-104060600D01*
X147172084Y-104272461D01*
X147605320Y-104446343D01*
X148082029Y-104592355D01*
X148523527Y-104698574D01*
X149046329Y-104812373D01*
X155429636Y-104823687D01*
X156174999Y-104824856D01*
X156895664Y-104825690D01*
X157586673Y-104826197D01*
X158243068Y-104826386D01*
X158859891Y-104826264D01*
X159432182Y-104825841D01*
X159954985Y-104825125D01*
X160423341Y-104824124D01*
X160832291Y-104822847D01*
X161176879Y-104821302D01*
X161452144Y-104819498D01*
X161653130Y-104817443D01*
X161774878Y-104815146D01*
X161812645Y-104812797D01*
X161782112Y-104778082D01*
X161694485Y-104686512D01*
X161555552Y-104543953D01*
X161371097Y-104356267D01*
X161146908Y-104129321D01*
X160888769Y-103868977D01*
X160602469Y-103581101D01*
X160293791Y-103271557D01*
X160147757Y-103125385D01*
X158483168Y-101460175D01*
X154053385Y-101437009D01*
X153285158Y-101432740D01*
X152601612Y-101428376D01*
X151998613Y-101423846D01*
X151472032Y-101419079D01*
X151017736Y-101414004D01*
X150631593Y-101408551D01*
X150309473Y-101402647D01*
X150047244Y-101396222D01*
X149840774Y-101389204D01*
X149685932Y-101381524D01*
X149578587Y-101373108D01*
X149514606Y-101363887D01*
X149496735Y-101358593D01*
X149437676Y-101315216D01*
X149323360Y-101214987D01*
X149160539Y-101064633D01*
X148955963Y-100870884D01*
X148716383Y-100640465D01*
X148448552Y-100380104D01*
X148159220Y-100096531D01*
X147855139Y-99796471D01*
X147543059Y-99486653D01*
X147229733Y-99173805D01*
X146921911Y-98864655D01*
X146626346Y-98565929D01*
X146349787Y-98284356D01*
X146098986Y-98026663D01*
X145880696Y-97799579D01*
X145701666Y-97609830D01*
X145568648Y-97464145D01*
X145488394Y-97369252D01*
X145475249Y-97351147D01*
X145378729Y-97187099D01*
X145298574Y-97016304D01*
X145261108Y-96907091D01*
X145231205Y-96720892D01*
X145218940Y-96491949D01*
X145223222Y-96248370D01*
X145242958Y-96018264D01*
X145277056Y-95829737D01*
X145306336Y-95742954D01*
X145374147Y-95592835D01*
X145438458Y-95446612D01*
X145444691Y-95432115D01*
X145486297Y-95365222D01*
X145578039Y-95237319D01*
X145713775Y-95056096D01*
X145887365Y-94829248D01*
X146092664Y-94564466D01*
X146323532Y-94269442D01*
X146573826Y-93951869D01*
X146837404Y-93619440D01*
X147108123Y-93279845D01*
X147379843Y-92940779D01*
X147646420Y-92609933D01*
X147901712Y-92294999D01*
X148139578Y-92003670D01*
X148353875Y-91743638D01*
X148538461Y-91522596D01*
X148687194Y-91348235D01*
X148793932Y-91228248D01*
X148836112Y-91184741D01*
X149014727Y-91035299D01*
X149220897Y-90894033D01*
X149377474Y-90807293D01*
X149668007Y-90669615D01*
X156961626Y-90657994D01*
X157759041Y-90656527D01*
X158532007Y-90654721D01*
X159275893Y-90652604D01*
X159986065Y-90650203D01*
X160657890Y-90647548D01*
X161286735Y-90644667D01*
X161867968Y-90641587D01*
X162396954Y-90638337D01*
X162869062Y-90634945D01*
X163279658Y-90631440D01*
X163624109Y-90627849D01*
X163897782Y-90624201D01*
X164096044Y-90620525D01*
X164214263Y-90616848D01*
X164248402Y-90613588D01*
X164216425Y-90576981D01*
X164127070Y-90483894D01*
X163986190Y-90340212D01*
X163799640Y-90151819D01*
X163573272Y-89924600D01*
X163312941Y-89664438D01*
X163024499Y-89377217D01*
X162713801Y-89068822D01*
X162570297Y-88926696D01*
X160899035Y-87272587D01*
X155017087Y-87267524D01*
X154299282Y-87266779D01*
X153604614Y-87265809D01*
X152938405Y-87264634D01*
X152305978Y-87263274D01*
X151712656Y-87261748D01*
X151163761Y-87260077D01*
X150664616Y-87258280D01*
X150220544Y-87256376D01*
X149836867Y-87254385D01*
X149518907Y-87252328D01*
X149271989Y-87250224D01*
X149101433Y-87248092D01*
X149012563Y-87245953D01*
X149001923Y-87245230D01*
X148875941Y-87244065D01*
X148683742Y-87260773D01*
G36*
X160632233Y-91524861D02*
G01*
X160571746Y-91527262D01*
X160569950Y-91527754D01*
X160584067Y-91557139D01*
X160625457Y-91585467D01*
X160689271Y-91634720D01*
X160702878Y-91659846D01*
X160733275Y-91696909D01*
X160820075Y-91789939D01*
X160956746Y-91932242D01*
X161136753Y-92117125D01*
X161353565Y-92337894D01*
X161600646Y-92587854D01*
X161871465Y-92860313D01*
X162011758Y-93000909D01*
X162292131Y-93282670D01*
X162551991Y-93546015D01*
X162784784Y-93784138D01*
X162983955Y-93990233D01*
X163142948Y-94157494D01*
X163255210Y-94279115D01*
X163314184Y-94348290D01*
X163321643Y-94360944D01*
X163326157Y-94392641D01*
X163342794Y-94419499D01*
X163378424Y-94441964D01*
X163439919Y-94460484D01*
X163534146Y-94475504D01*
X163667978Y-94487471D01*
X163848283Y-94496831D01*
X164081933Y-94504031D01*
X164375796Y-94509517D01*
X164736743Y-94513735D01*
X165171645Y-94517133D01*
X165687371Y-94520156D01*
X165779303Y-94520642D01*
X166225757Y-94522550D01*
X166644284Y-94523501D01*
X167026695Y-94523536D01*
X167364798Y-94522693D01*
X167650403Y-94521012D01*
X167875319Y-94518533D01*
X168031356Y-94515294D01*
X168110323Y-94511335D01*
X168118545Y-94509407D01*
X168088155Y-94473530D01*
X168002111Y-94383165D01*
X167868089Y-94246088D01*
X167693765Y-94070074D01*
X167486816Y-93862897D01*
X167254917Y-93632332D01*
X167152710Y-93531165D01*
X166795740Y-93182469D01*
X166487769Y-92892048D01*
X166218566Y-92652000D01*
X165977900Y-92454425D01*
X165755538Y-92291422D01*
X165541250Y-92155090D01*
X165324803Y-92037528D01*
X165095967Y-91930836D01*
X165060422Y-91915487D01*
X164860109Y-91831154D01*
X164682135Y-91761372D01*
X164515293Y-91704620D01*
X164348378Y-91659373D01*
X164170181Y-91624108D01*
X163969497Y-91597303D01*
X163735118Y-91577433D01*
X163455839Y-91562977D01*
X163120451Y-91552409D01*
X162717749Y-91544208D01*
X162279196Y-91537458D01*
X161900887Y-91532422D01*
X161551025Y-91528486D01*
X161239419Y-91525706D01*
X160975879Y-91524138D01*
X160770214Y-91523838D01*
X160632233Y-91524861D01*
G37*
X160632233Y-91524861D02*
X160571746Y-91527262D01*
X160569950Y-91527754D01*
X160584067Y-91557139D01*
X160625457Y-91585467D01*
X160689271Y-91634720D01*
X160702878Y-91659846D01*
X160733275Y-91696909D01*
X160820075Y-91789939D01*
X160956746Y-91932242D01*
X161136753Y-92117125D01*
X161353565Y-92337894D01*
X161600646Y-92587854D01*
X161871465Y-92860313D01*
X162011758Y-93000909D01*
X162292131Y-93282670D01*
X162551991Y-93546015D01*
X162784784Y-93784138D01*
X162983955Y-93990233D01*
X163142948Y-94157494D01*
X163255210Y-94279115D01*
X163314184Y-94348290D01*
X163321643Y-94360944D01*
X163326157Y-94392641D01*
X163342794Y-94419499D01*
X163378424Y-94441964D01*
X163439919Y-94460484D01*
X163534146Y-94475504D01*
X163667978Y-94487471D01*
X163848283Y-94496831D01*
X164081933Y-94504031D01*
X164375796Y-94509517D01*
X164736743Y-94513735D01*
X165171645Y-94517133D01*
X165687371Y-94520156D01*
X165779303Y-94520642D01*
X166225757Y-94522550D01*
X166644284Y-94523501D01*
X167026695Y-94523536D01*
X167364798Y-94522693D01*
X167650403Y-94521012D01*
X167875319Y-94518533D01*
X168031356Y-94515294D01*
X168110323Y-94511335D01*
X168118545Y-94509407D01*
X168088155Y-94473530D01*
X168002111Y-94383165D01*
X167868089Y-94246088D01*
X167693765Y-94070074D01*
X167486816Y-93862897D01*
X167254917Y-93632332D01*
X167152710Y-93531165D01*
X166795740Y-93182469D01*
X166487769Y-92892048D01*
X166218566Y-92652000D01*
X165977900Y-92454425D01*
X165755538Y-92291422D01*
X165541250Y-92155090D01*
X165324803Y-92037528D01*
X165095967Y-91930836D01*
X165060422Y-91915487D01*
X164860109Y-91831154D01*
X164682135Y-91761372D01*
X164515293Y-91704620D01*
X164348378Y-91659373D01*
X164170181Y-91624108D01*
X163969497Y-91597303D01*
X163735118Y-91577433D01*
X163455839Y-91562977D01*
X163120451Y-91552409D01*
X162717749Y-91544208D01*
X162279196Y-91537458D01*
X161900887Y-91532422D01*
X161551025Y-91528486D01*
X161239419Y-91525706D01*
X160975879Y-91524138D01*
X160770214Y-91523838D01*
X160632233Y-91524861D01*
G36*
X151201324Y-93023112D02*
G01*
X152684769Y-94510699D01*
X158404790Y-94510699D01*
X157566643Y-93663834D01*
X157325815Y-93422655D01*
X157088326Y-93188754D01*
X156866390Y-92973868D01*
X156672222Y-92789734D01*
X156518034Y-92648087D01*
X156431654Y-92573228D01*
X155945548Y-92227472D01*
X155409511Y-91942579D01*
X154844019Y-91727975D01*
X154321510Y-91601790D01*
X154209590Y-91585416D01*
X154072837Y-91571802D01*
X153903086Y-91560730D01*
X153692170Y-91551984D01*
X153431924Y-91545347D01*
X153114182Y-91540601D01*
X152730780Y-91537529D01*
X152273550Y-91535914D01*
X151829696Y-91535524D01*
X149717879Y-91535524D01*
X151201324Y-93023112D01*
G37*
X151201324Y-93023112D02*
X152684769Y-94510699D01*
X158404790Y-94510699D01*
X157566643Y-93663834D01*
X157325815Y-93422655D01*
X157088326Y-93188754D01*
X156866390Y-92973868D01*
X156672222Y-92789734D01*
X156518034Y-92648087D01*
X156431654Y-92573228D01*
X155945548Y-92227472D01*
X155409511Y-91942579D01*
X154844019Y-91727975D01*
X154321510Y-91601790D01*
X154209590Y-91585416D01*
X154072837Y-91571802D01*
X153903086Y-91560730D01*
X153692170Y-91551984D01*
X153431924Y-91545347D01*
X153114182Y-91540601D01*
X152730780Y-91537529D01*
X152273550Y-91535914D01*
X151829696Y-91535524D01*
X149717879Y-91535524D01*
X151201324Y-93023112D01*
G36*
X182078256Y-85771193D02*
G01*
X181406117Y-85984441D01*
X180791433Y-86337331D01*
X180255946Y-86823671D01*
X179931631Y-87253005D01*
X179599469Y-87917583D01*
X179422331Y-88609578D01*
X179393144Y-89307444D01*
X179504830Y-89989638D01*
X179750316Y-90634615D01*
X180122525Y-91220830D01*
X180614383Y-91726739D01*
X181218813Y-92130796D01*
X181588666Y-92298721D01*
X182037234Y-92418431D01*
X182584060Y-92482088D01*
X183166314Y-92485834D01*
X183705333Y-92428613D01*
X184086333Y-92362212D01*
X184679000Y-93186218D01*
X184933268Y-93539529D01*
X185171344Y-93869968D01*
X185364422Y-94137580D01*
X185473280Y-94288060D01*
X185674894Y-94565897D01*
X185166797Y-95078745D01*
X184618162Y-95744598D01*
X184218047Y-96471894D01*
X183966522Y-97241320D01*
X183863655Y-98033566D01*
X183909515Y-98829318D01*
X184104172Y-99609267D01*
X184447694Y-100354100D01*
X184940151Y-101044506D01*
X185144666Y-101266618D01*
X185803109Y-101825403D01*
X186523367Y-102235674D01*
X187286418Y-102497423D01*
X188073238Y-102610640D01*
X188864804Y-102575317D01*
X189642094Y-102391445D01*
X190386085Y-102059013D01*
X191077754Y-101578014D01*
X191410000Y-101269616D01*
X191901952Y-100703652D01*
X192256588Y-100138891D01*
X192499875Y-99531688D01*
X192550214Y-99353373D01*
X192634584Y-98877552D01*
X192672265Y-98322721D01*
X192666371Y-97971412D01*
X192066716Y-97971412D01*
X192044408Y-98671366D01*
X191898590Y-99355280D01*
X191630113Y-100002751D01*
X191239824Y-100593373D01*
X190728574Y-101106742D01*
X190097210Y-101522455D01*
X190020665Y-101561246D01*
X189341828Y-101842653D01*
X188704749Y-101986813D01*
X188062856Y-102000948D01*
X187590389Y-101938220D01*
X186853287Y-101719474D01*
X186192631Y-101364307D01*
X185621089Y-100892586D01*
X185151326Y-100324183D01*
X184796009Y-99678968D01*
X184567804Y-98976809D01*
X184479378Y-98237576D01*
X184543396Y-97481140D01*
X184597119Y-97242627D01*
X184871171Y-96518100D01*
X185289445Y-95862539D01*
X185833540Y-95297714D01*
X186485057Y-94845392D01*
X186728983Y-94720531D01*
X187400989Y-94493589D01*
X188129772Y-94401713D01*
X188873557Y-94442274D01*
X189590567Y-94612640D01*
X190239027Y-94910179D01*
X190295916Y-94945197D01*
X190903885Y-95419285D01*
X191384100Y-95979355D01*
X191737411Y-96605002D01*
X191964667Y-97275823D01*
X192066716Y-97971412D01*
X192666371Y-97971412D01*
X192662805Y-97758923D01*
X192605754Y-97256203D01*
X192564908Y-97070334D01*
X192305682Y-96371348D01*
X191921571Y-95699660D01*
X191444943Y-95104309D01*
X191002897Y-94703753D01*
X190576308Y-94378433D01*
X190789667Y-94097454D01*
X186538367Y-94097454D01*
X186427864Y-94195346D01*
X186269962Y-94212727D01*
X186186701Y-94140660D01*
X186023356Y-93955362D01*
X185799462Y-93680532D01*
X185534554Y-93339869D01*
X185363589Y-93113115D01*
X185062594Y-92706388D01*
X184853256Y-92413140D01*
X184724067Y-92212574D01*
X184663521Y-92083889D01*
X184660112Y-92006286D01*
X184702332Y-91958964D01*
X184719561Y-91948949D01*
X184867703Y-91879696D01*
X184924826Y-91863334D01*
X184985773Y-91926629D01*
X185126248Y-92097842D01*
X185324802Y-92348956D01*
X185559984Y-92651960D01*
X185810344Y-92978839D01*
X186054430Y-93301579D01*
X186270792Y-93592168D01*
X186437980Y-93822590D01*
X186534543Y-93964834D01*
X186536636Y-93968300D01*
X186538367Y-94097454D01*
X190789667Y-94097454D01*
X191386567Y-93311383D01*
X191719840Y-92884803D01*
X191993829Y-92559406D01*
X192197451Y-92347505D01*
X192319624Y-92261415D01*
X192332580Y-92260280D01*
X192485848Y-92292213D01*
X192736464Y-92357508D01*
X192934000Y-92413867D01*
X193469835Y-92506854D01*
X194064771Y-92504108D01*
X194640511Y-92408866D01*
X194881333Y-92333396D01*
X195134997Y-92240748D01*
X195335430Y-92171544D01*
X195389333Y-92154729D01*
X195497606Y-92208577D01*
X195692443Y-92405894D01*
X195972646Y-92745335D01*
X196299500Y-93174845D01*
X196568602Y-93541922D01*
X196797497Y-93862108D01*
X196968878Y-94110559D01*
X197065443Y-94262428D01*
X197080389Y-94296006D01*
X197012998Y-94374499D01*
X196844327Y-94500573D01*
X196732111Y-94572667D01*
X196286321Y-94922061D01*
X195858025Y-95397867D01*
X195476837Y-95957597D01*
X195172370Y-96558763D01*
X194999030Y-97059191D01*
X194918585Y-97523513D01*
X194887473Y-98078640D01*
X194905322Y-98653506D01*
X194971755Y-99177041D01*
X195011119Y-99353373D01*
X195225767Y-99975640D01*
X195540702Y-100540753D01*
X195982635Y-101093463D01*
X196162635Y-101282526D01*
X196824417Y-101839137D01*
X197558200Y-102249132D01*
X198346068Y-102507330D01*
X199170102Y-102608548D01*
X200012385Y-102547604D01*
X200318487Y-102484518D01*
X201007786Y-102243713D01*
X201674766Y-101873868D01*
X202283290Y-101403152D01*
X202797220Y-100859738D01*
X203180419Y-100271794D01*
X203195467Y-100241798D01*
X203510349Y-99426211D01*
X203665912Y-98592498D01*
X203665121Y-97801476D01*
X203061034Y-97801476D01*
X203059044Y-98547535D01*
X202915177Y-99273574D01*
X202636244Y-99957929D01*
X202229053Y-100578938D01*
X201700412Y-101114936D01*
X201057131Y-101544262D01*
X200959491Y-101594042D01*
X200256182Y-101873236D01*
X199572651Y-101999904D01*
X198868711Y-101979880D01*
X198597423Y-101936914D01*
X198263204Y-101849724D01*
X197881024Y-101715866D01*
X197633367Y-101610070D01*
X196967560Y-101211128D01*
X196424540Y-100715184D01*
X196004251Y-100141788D01*
X195706639Y-99510488D01*
X195531647Y-98840830D01*
X195479220Y-98152365D01*
X195549303Y-97464639D01*
X195741841Y-96797201D01*
X196056778Y-96169598D01*
X196494060Y-95601380D01*
X197053630Y-95112094D01*
X197652748Y-94759667D01*
X197944218Y-94623966D01*
X198173486Y-94534344D01*
X198390158Y-94481255D01*
X198643840Y-94455149D01*
X198984134Y-94446477D01*
X199284000Y-94445667D01*
X199714683Y-94448576D01*
X200024226Y-94462950D01*
X200260795Y-94497255D01*
X200472557Y-94559961D01*
X200707678Y-94659534D01*
X200832350Y-94717875D01*
X201333844Y-95011655D01*
X201824254Y-95398604D01*
X202255147Y-95834689D01*
X202578092Y-96275880D01*
X202612151Y-96335949D01*
X202914339Y-97057060D01*
X203061034Y-97801476D01*
X203665121Y-97801476D01*
X203665079Y-97760146D01*
X203510771Y-96948645D01*
X203205907Y-96177485D01*
X202753409Y-95466154D01*
X202422869Y-95087034D01*
X202010376Y-94663544D01*
X202855620Y-93538605D01*
X203215578Y-93070149D01*
X203490635Y-92736883D01*
X203687374Y-92531505D01*
X203812380Y-92446713D01*
X203841932Y-92444475D01*
X203985252Y-92458877D01*
X204252021Y-92471831D01*
X204596360Y-92481403D01*
X204787333Y-92484362D01*
X205184187Y-92483637D01*
X205470763Y-92463524D01*
X205705903Y-92413084D01*
X205948451Y-92321379D01*
X206142000Y-92232543D01*
X206287614Y-92148542D01*
X203077648Y-92148542D01*
X203019718Y-92252238D01*
X202882539Y-92456574D01*
X202687323Y-92732970D01*
X202455283Y-93052843D01*
X202207633Y-93387610D01*
X201965585Y-93708690D01*
X201750351Y-93987502D01*
X201583145Y-94195462D01*
X201485180Y-94303989D01*
X201471091Y-94313201D01*
X201350899Y-94290985D01*
X201280591Y-94267275D01*
X201164275Y-94182645D01*
X201146666Y-94136822D01*
X201194672Y-94050251D01*
X201326370Y-93854190D01*
X201523282Y-93574189D01*
X201766929Y-93235793D01*
X202038832Y-92864551D01*
X202320512Y-92486010D01*
X202593491Y-92125717D01*
X202720137Y-91961436D01*
X202816768Y-91950305D01*
X202958352Y-92010584D01*
X203064271Y-92100078D01*
X203077648Y-92148542D01*
X206287614Y-92148542D01*
X206772436Y-91868863D01*
X207271289Y-91427720D01*
X207669527Y-90879092D01*
X207812275Y-90613361D01*
X207958890Y-90307196D01*
X208052051Y-90068601D01*
X208103838Y-89840778D01*
X208126332Y-89566929D01*
X208131612Y-89190257D01*
X208131666Y-89111667D01*
X208131651Y-89109887D01*
X207538932Y-89109887D01*
X207526905Y-89511122D01*
X207481518Y-89816909D01*
X207388671Y-90100032D01*
X207314738Y-90267194D01*
X206953146Y-90855492D01*
X206489683Y-91320096D01*
X205945709Y-91653456D01*
X205342581Y-91848020D01*
X204701656Y-91896236D01*
X204044292Y-91790553D01*
X203542957Y-91600800D01*
X202971482Y-91237935D01*
X202520692Y-90763845D01*
X202201737Y-90196439D01*
X202025767Y-89553628D01*
X201993333Y-89111667D01*
X202065233Y-88447527D01*
X202267593Y-87864249D01*
X202580404Y-87366576D01*
X202983658Y-86959251D01*
X203457345Y-86647018D01*
X203981456Y-86434620D01*
X204535982Y-86326800D01*
X205100915Y-86328301D01*
X205656245Y-86443867D01*
X206181963Y-86678241D01*
X206658061Y-87036165D01*
X207064529Y-87522384D01*
X207259618Y-87863267D01*
X207407340Y-88185648D01*
X207491866Y-88451686D01*
X207530095Y-88736813D01*
X207538932Y-89109887D01*
X208131651Y-89109887D01*
X208128116Y-88711794D01*
X208109412Y-88424429D01*
X208063474Y-88192774D01*
X207978222Y-87960033D01*
X207841576Y-87669407D01*
X207812275Y-87609973D01*
X207407041Y-86968710D01*
X206890963Y-86444472D01*
X206282123Y-86049787D01*
X205598605Y-85797184D01*
X205070451Y-85710326D01*
X204324993Y-85727903D01*
X203623923Y-85899088D01*
X202984676Y-86210319D01*
X202424690Y-86648028D01*
X201961400Y-87198651D01*
X201612244Y-87848623D01*
X201397873Y-88567528D01*
X201354155Y-89200549D01*
X201447213Y-89865406D01*
X201665310Y-90512582D01*
X201996085Y-91091695D01*
X202140644Y-91304604D01*
X202231472Y-91464055D01*
X202247333Y-91511350D01*
X202199781Y-91591321D01*
X202070472Y-91779310D01*
X201879430Y-92048002D01*
X201646677Y-92370081D01*
X201392238Y-92718233D01*
X201136135Y-93065144D01*
X200898392Y-93383499D01*
X200699030Y-93645983D01*
X200558075Y-93825282D01*
X200509734Y-93881707D01*
X200419071Y-93883815D01*
X200205854Y-93862484D01*
X199914533Y-93822260D01*
X199886852Y-93818000D01*
X199354086Y-93768574D01*
X198828376Y-93799677D01*
X198673781Y-93821603D01*
X198311843Y-93879144D01*
X198042628Y-93911164D01*
X197836084Y-93901914D01*
X197662156Y-93835640D01*
X197490789Y-93696592D01*
X197291930Y-93469018D01*
X197035525Y-93137168D01*
X196816063Y-92847975D01*
X195985551Y-91758284D01*
X196321552Y-91376566D01*
X196555708Y-91072575D01*
X196785159Y-90714838D01*
X196891277Y-90518924D01*
X196996172Y-90290052D01*
X197064117Y-90084847D01*
X197102986Y-89855755D01*
X197120654Y-89555221D01*
X197124991Y-89135690D01*
X197124998Y-89111667D01*
X196530651Y-89111667D01*
X196520767Y-89526299D01*
X196486972Y-89828112D01*
X196419812Y-90073000D01*
X196335359Y-90266192D01*
X195954998Y-90865175D01*
X195479248Y-91335144D01*
X194927727Y-91669203D01*
X194320051Y-91860461D01*
X193675835Y-91902024D01*
X193014697Y-91786999D01*
X192535387Y-91601511D01*
X191969647Y-91238043D01*
X191508920Y-90742715D01*
X191219903Y-90261065D01*
X191120569Y-90023734D01*
X191061829Y-89772770D01*
X191034475Y-89452717D01*
X191029000Y-89111667D01*
X191036153Y-88714205D01*
X191065268Y-88425199D01*
X191127825Y-88184097D01*
X191235307Y-87930348D01*
X191264355Y-87870407D01*
X191618645Y-87327411D01*
X192081490Y-86889748D01*
X192625482Y-86567444D01*
X193223213Y-86370522D01*
X193847277Y-86309007D01*
X194470267Y-86392924D01*
X194891494Y-86543772D01*
X195497058Y-86904809D01*
X195972734Y-87370753D01*
X196283180Y-87857942D01*
X196406731Y-88121247D01*
X196481193Y-88351065D01*
X196518430Y-88607507D01*
X196530308Y-88950686D01*
X196530651Y-89111667D01*
X197124998Y-89111667D01*
X197125000Y-89107245D01*
X197122245Y-88689157D01*
X197107657Y-88391163D01*
X197071748Y-88164043D01*
X197005032Y-87958574D01*
X196898022Y-87725535D01*
X196834248Y-87598664D01*
X196431137Y-86971613D01*
X195936277Y-86471080D01*
X195370036Y-86096682D01*
X194752783Y-85848037D01*
X194104884Y-85724762D01*
X193446707Y-85726475D01*
X192798622Y-85852794D01*
X192180994Y-86103336D01*
X191614193Y-86477719D01*
X191118587Y-86975560D01*
X190714542Y-87596477D01*
X190656226Y-87714667D01*
X190556343Y-87944735D01*
X190491976Y-88158029D01*
X190455565Y-88402566D01*
X190439552Y-88726363D01*
X190436333Y-89111667D01*
X190440712Y-89543982D01*
X190458888Y-89855096D01*
X190498419Y-90093026D01*
X190566863Y-90305789D01*
X190656226Y-90508667D01*
X190837180Y-90828221D01*
X191080009Y-91177583D01*
X191276216Y-91416955D01*
X191500746Y-91690788D01*
X191610211Y-91884836D01*
X191611947Y-91967289D01*
X191509236Y-92120495D01*
X191336652Y-92358787D01*
X191115813Y-92654236D01*
X190868338Y-92978911D01*
X190615844Y-93304884D01*
X190379950Y-93604226D01*
X190182273Y-93849007D01*
X190044432Y-94011298D01*
X189989225Y-94063750D01*
X189879730Y-94039757D01*
X189665608Y-93979314D01*
X189505000Y-93930334D01*
X189215924Y-93867359D01*
X188834422Y-93820948D01*
X188413424Y-93793400D01*
X188005863Y-93787010D01*
X187664669Y-93804077D01*
X187457800Y-93841487D01*
X187379825Y-93850093D01*
X187290406Y-93812507D01*
X187172913Y-93711367D01*
X187010717Y-93529311D01*
X186787188Y-93248976D01*
X186485697Y-92853001D01*
X186393472Y-92730275D01*
X186101276Y-92339810D01*
X185842684Y-91992369D01*
X185635698Y-91712290D01*
X185498318Y-91523907D01*
X185450818Y-91455886D01*
X185453841Y-91325220D01*
X185544147Y-91136269D01*
X185565759Y-91104480D01*
X185923930Y-90465437D01*
X186130612Y-89787911D01*
X186190347Y-89111667D01*
X185568000Y-89111667D01*
X185488725Y-89780765D01*
X185262178Y-90390899D01*
X184905274Y-90924526D01*
X184434930Y-91364107D01*
X183868062Y-91692101D01*
X183221586Y-91890965D01*
X182841667Y-91938724D01*
X182679886Y-91927043D01*
X182423046Y-91887022D01*
X182249001Y-91852902D01*
X181695704Y-91688702D01*
X181232037Y-91434374D01*
X180836101Y-91100676D01*
X180421453Y-90599278D01*
X180156865Y-90037589D01*
X180034290Y-89395906D01*
X180023218Y-89110425D01*
X180031910Y-88732808D01*
X180070304Y-88448838D01*
X180155114Y-88183326D01*
X180299239Y-87868836D01*
X180673720Y-87279309D01*
X181146686Y-86826591D01*
X181710998Y-86515136D01*
X182359515Y-86349402D01*
X182778043Y-86321776D01*
X183152124Y-86331961D01*
X183440408Y-86377761D01*
X183725610Y-86478119D01*
X183980086Y-86597059D01*
X184573858Y-86975117D01*
X185036287Y-87454324D01*
X185359567Y-88022314D01*
X185535886Y-88666720D01*
X185568000Y-89111667D01*
X186190347Y-89111667D01*
X186191846Y-89094703D01*
X186113669Y-88408610D01*
X185902121Y-87752431D01*
X185563240Y-87148965D01*
X185103066Y-86621010D01*
X184527636Y-86191365D01*
X184221984Y-86031211D01*
X183507931Y-85788386D01*
X182786108Y-85703777D01*
X182078256Y-85771193D01*
G37*
X182078256Y-85771193D02*
X181406117Y-85984441D01*
X180791433Y-86337331D01*
X180255946Y-86823671D01*
X179931631Y-87253005D01*
X179599469Y-87917583D01*
X179422331Y-88609578D01*
X179393144Y-89307444D01*
X179504830Y-89989638D01*
X179750316Y-90634615D01*
X180122525Y-91220830D01*
X180614383Y-91726739D01*
X181218813Y-92130796D01*
X181588666Y-92298721D01*
X182037234Y-92418431D01*
X182584060Y-92482088D01*
X183166314Y-92485834D01*
X183705333Y-92428613D01*
X184086333Y-92362212D01*
X184679000Y-93186218D01*
X184933268Y-93539529D01*
X185171344Y-93869968D01*
X185364422Y-94137580D01*
X185473280Y-94288060D01*
X185674894Y-94565897D01*
X185166797Y-95078745D01*
X184618162Y-95744598D01*
X184218047Y-96471894D01*
X183966522Y-97241320D01*
X183863655Y-98033566D01*
X183909515Y-98829318D01*
X184104172Y-99609267D01*
X184447694Y-100354100D01*
X184940151Y-101044506D01*
X185144666Y-101266618D01*
X185803109Y-101825403D01*
X186523367Y-102235674D01*
X187286418Y-102497423D01*
X188073238Y-102610640D01*
X188864804Y-102575317D01*
X189642094Y-102391445D01*
X190386085Y-102059013D01*
X191077754Y-101578014D01*
X191410000Y-101269616D01*
X191901952Y-100703652D01*
X192256588Y-100138891D01*
X192499875Y-99531688D01*
X192550214Y-99353373D01*
X192634584Y-98877552D01*
X192672265Y-98322721D01*
X192666371Y-97971412D01*
X192066716Y-97971412D01*
X192044408Y-98671366D01*
X191898590Y-99355280D01*
X191630113Y-100002751D01*
X191239824Y-100593373D01*
X190728574Y-101106742D01*
X190097210Y-101522455D01*
X190020665Y-101561246D01*
X189341828Y-101842653D01*
X188704749Y-101986813D01*
X188062856Y-102000948D01*
X187590389Y-101938220D01*
X186853287Y-101719474D01*
X186192631Y-101364307D01*
X185621089Y-100892586D01*
X185151326Y-100324183D01*
X184796009Y-99678968D01*
X184567804Y-98976809D01*
X184479378Y-98237576D01*
X184543396Y-97481140D01*
X184597119Y-97242627D01*
X184871171Y-96518100D01*
X185289445Y-95862539D01*
X185833540Y-95297714D01*
X186485057Y-94845392D01*
X186728983Y-94720531D01*
X187400989Y-94493589D01*
X188129772Y-94401713D01*
X188873557Y-94442274D01*
X189590567Y-94612640D01*
X190239027Y-94910179D01*
X190295916Y-94945197D01*
X190903885Y-95419285D01*
X191384100Y-95979355D01*
X191737411Y-96605002D01*
X191964667Y-97275823D01*
X192066716Y-97971412D01*
X192666371Y-97971412D01*
X192662805Y-97758923D01*
X192605754Y-97256203D01*
X192564908Y-97070334D01*
X192305682Y-96371348D01*
X191921571Y-95699660D01*
X191444943Y-95104309D01*
X191002897Y-94703753D01*
X190576308Y-94378433D01*
X190789667Y-94097454D01*
X186538367Y-94097454D01*
X186427864Y-94195346D01*
X186269962Y-94212727D01*
X186186701Y-94140660D01*
X186023356Y-93955362D01*
X185799462Y-93680532D01*
X185534554Y-93339869D01*
X185363589Y-93113115D01*
X185062594Y-92706388D01*
X184853256Y-92413140D01*
X184724067Y-92212574D01*
X184663521Y-92083889D01*
X184660112Y-92006286D01*
X184702332Y-91958964D01*
X184719561Y-91948949D01*
X184867703Y-91879696D01*
X184924826Y-91863334D01*
X184985773Y-91926629D01*
X185126248Y-92097842D01*
X185324802Y-92348956D01*
X185559984Y-92651960D01*
X185810344Y-92978839D01*
X186054430Y-93301579D01*
X186270792Y-93592168D01*
X186437980Y-93822590D01*
X186534543Y-93964834D01*
X186536636Y-93968300D01*
X186538367Y-94097454D01*
X190789667Y-94097454D01*
X191386567Y-93311383D01*
X191719840Y-92884803D01*
X191993829Y-92559406D01*
X192197451Y-92347505D01*
X192319624Y-92261415D01*
X192332580Y-92260280D01*
X192485848Y-92292213D01*
X192736464Y-92357508D01*
X192934000Y-92413867D01*
X193469835Y-92506854D01*
X194064771Y-92504108D01*
X194640511Y-92408866D01*
X194881333Y-92333396D01*
X195134997Y-92240748D01*
X195335430Y-92171544D01*
X195389333Y-92154729D01*
X195497606Y-92208577D01*
X195692443Y-92405894D01*
X195972646Y-92745335D01*
X196299500Y-93174845D01*
X196568602Y-93541922D01*
X196797497Y-93862108D01*
X196968878Y-94110559D01*
X197065443Y-94262428D01*
X197080389Y-94296006D01*
X197012998Y-94374499D01*
X196844327Y-94500573D01*
X196732111Y-94572667D01*
X196286321Y-94922061D01*
X195858025Y-95397867D01*
X195476837Y-95957597D01*
X195172370Y-96558763D01*
X194999030Y-97059191D01*
X194918585Y-97523513D01*
X194887473Y-98078640D01*
X194905322Y-98653506D01*
X194971755Y-99177041D01*
X195011119Y-99353373D01*
X195225767Y-99975640D01*
X195540702Y-100540753D01*
X195982635Y-101093463D01*
X196162635Y-101282526D01*
X196824417Y-101839137D01*
X197558200Y-102249132D01*
X198346068Y-102507330D01*
X199170102Y-102608548D01*
X200012385Y-102547604D01*
X200318487Y-102484518D01*
X201007786Y-102243713D01*
X201674766Y-101873868D01*
X202283290Y-101403152D01*
X202797220Y-100859738D01*
X203180419Y-100271794D01*
X203195467Y-100241798D01*
X203510349Y-99426211D01*
X203665912Y-98592498D01*
X203665121Y-97801476D01*
X203061034Y-97801476D01*
X203059044Y-98547535D01*
X202915177Y-99273574D01*
X202636244Y-99957929D01*
X202229053Y-100578938D01*
X201700412Y-101114936D01*
X201057131Y-101544262D01*
X200959491Y-101594042D01*
X200256182Y-101873236D01*
X199572651Y-101999904D01*
X198868711Y-101979880D01*
X198597423Y-101936914D01*
X198263204Y-101849724D01*
X197881024Y-101715866D01*
X197633367Y-101610070D01*
X196967560Y-101211128D01*
X196424540Y-100715184D01*
X196004251Y-100141788D01*
X195706639Y-99510488D01*
X195531647Y-98840830D01*
X195479220Y-98152365D01*
X195549303Y-97464639D01*
X195741841Y-96797201D01*
X196056778Y-96169598D01*
X196494060Y-95601380D01*
X197053630Y-95112094D01*
X197652748Y-94759667D01*
X197944218Y-94623966D01*
X198173486Y-94534344D01*
X198390158Y-94481255D01*
X198643840Y-94455149D01*
X198984134Y-94446477D01*
X199284000Y-94445667D01*
X199714683Y-94448576D01*
X200024226Y-94462950D01*
X200260795Y-94497255D01*
X200472557Y-94559961D01*
X200707678Y-94659534D01*
X200832350Y-94717875D01*
X201333844Y-95011655D01*
X201824254Y-95398604D01*
X202255147Y-95834689D01*
X202578092Y-96275880D01*
X202612151Y-96335949D01*
X202914339Y-97057060D01*
X203061034Y-97801476D01*
X203665121Y-97801476D01*
X203665079Y-97760146D01*
X203510771Y-96948645D01*
X203205907Y-96177485D01*
X202753409Y-95466154D01*
X202422869Y-95087034D01*
X202010376Y-94663544D01*
X202855620Y-93538605D01*
X203215578Y-93070149D01*
X203490635Y-92736883D01*
X203687374Y-92531505D01*
X203812380Y-92446713D01*
X203841932Y-92444475D01*
X203985252Y-92458877D01*
X204252021Y-92471831D01*
X204596360Y-92481403D01*
X204787333Y-92484362D01*
X205184187Y-92483637D01*
X205470763Y-92463524D01*
X205705903Y-92413084D01*
X205948451Y-92321379D01*
X206142000Y-92232543D01*
X206287614Y-92148542D01*
X203077648Y-92148542D01*
X203019718Y-92252238D01*
X202882539Y-92456574D01*
X202687323Y-92732970D01*
X202455283Y-93052843D01*
X202207633Y-93387610D01*
X201965585Y-93708690D01*
X201750351Y-93987502D01*
X201583145Y-94195462D01*
X201485180Y-94303989D01*
X201471091Y-94313201D01*
X201350899Y-94290985D01*
X201280591Y-94267275D01*
X201164275Y-94182645D01*
X201146666Y-94136822D01*
X201194672Y-94050251D01*
X201326370Y-93854190D01*
X201523282Y-93574189D01*
X201766929Y-93235793D01*
X202038832Y-92864551D01*
X202320512Y-92486010D01*
X202593491Y-92125717D01*
X202720137Y-91961436D01*
X202816768Y-91950305D01*
X202958352Y-92010584D01*
X203064271Y-92100078D01*
X203077648Y-92148542D01*
X206287614Y-92148542D01*
X206772436Y-91868863D01*
X207271289Y-91427720D01*
X207669527Y-90879092D01*
X207812275Y-90613361D01*
X207958890Y-90307196D01*
X208052051Y-90068601D01*
X208103838Y-89840778D01*
X208126332Y-89566929D01*
X208131612Y-89190257D01*
X208131666Y-89111667D01*
X208131651Y-89109887D01*
X207538932Y-89109887D01*
X207526905Y-89511122D01*
X207481518Y-89816909D01*
X207388671Y-90100032D01*
X207314738Y-90267194D01*
X206953146Y-90855492D01*
X206489683Y-91320096D01*
X205945709Y-91653456D01*
X205342581Y-91848020D01*
X204701656Y-91896236D01*
X204044292Y-91790553D01*
X203542957Y-91600800D01*
X202971482Y-91237935D01*
X202520692Y-90763845D01*
X202201737Y-90196439D01*
X202025767Y-89553628D01*
X201993333Y-89111667D01*
X202065233Y-88447527D01*
X202267593Y-87864249D01*
X202580404Y-87366576D01*
X202983658Y-86959251D01*
X203457345Y-86647018D01*
X203981456Y-86434620D01*
X204535982Y-86326800D01*
X205100915Y-86328301D01*
X205656245Y-86443867D01*
X206181963Y-86678241D01*
X206658061Y-87036165D01*
X207064529Y-87522384D01*
X207259618Y-87863267D01*
X207407340Y-88185648D01*
X207491866Y-88451686D01*
X207530095Y-88736813D01*
X207538932Y-89109887D01*
X208131651Y-89109887D01*
X208128116Y-88711794D01*
X208109412Y-88424429D01*
X208063474Y-88192774D01*
X207978222Y-87960033D01*
X207841576Y-87669407D01*
X207812275Y-87609973D01*
X207407041Y-86968710D01*
X206890963Y-86444472D01*
X206282123Y-86049787D01*
X205598605Y-85797184D01*
X205070451Y-85710326D01*
X204324993Y-85727903D01*
X203623923Y-85899088D01*
X202984676Y-86210319D01*
X202424690Y-86648028D01*
X201961400Y-87198651D01*
X201612244Y-87848623D01*
X201397873Y-88567528D01*
X201354155Y-89200549D01*
X201447213Y-89865406D01*
X201665310Y-90512582D01*
X201996085Y-91091695D01*
X202140644Y-91304604D01*
X202231472Y-91464055D01*
X202247333Y-91511350D01*
X202199781Y-91591321D01*
X202070472Y-91779310D01*
X201879430Y-92048002D01*
X201646677Y-92370081D01*
X201392238Y-92718233D01*
X201136135Y-93065144D01*
X200898392Y-93383499D01*
X200699030Y-93645983D01*
X200558075Y-93825282D01*
X200509734Y-93881707D01*
X200419071Y-93883815D01*
X200205854Y-93862484D01*
X199914533Y-93822260D01*
X199886852Y-93818000D01*
X199354086Y-93768574D01*
X198828376Y-93799677D01*
X198673781Y-93821603D01*
X198311843Y-93879144D01*
X198042628Y-93911164D01*
X197836084Y-93901914D01*
X197662156Y-93835640D01*
X197490789Y-93696592D01*
X197291930Y-93469018D01*
X197035525Y-93137168D01*
X196816063Y-92847975D01*
X195985551Y-91758284D01*
X196321552Y-91376566D01*
X196555708Y-91072575D01*
X196785159Y-90714838D01*
X196891277Y-90518924D01*
X196996172Y-90290052D01*
X197064117Y-90084847D01*
X197102986Y-89855755D01*
X197120654Y-89555221D01*
X197124991Y-89135690D01*
X197124998Y-89111667D01*
X196530651Y-89111667D01*
X196520767Y-89526299D01*
X196486972Y-89828112D01*
X196419812Y-90073000D01*
X196335359Y-90266192D01*
X195954998Y-90865175D01*
X195479248Y-91335144D01*
X194927727Y-91669203D01*
X194320051Y-91860461D01*
X193675835Y-91902024D01*
X193014697Y-91786999D01*
X192535387Y-91601511D01*
X191969647Y-91238043D01*
X191508920Y-90742715D01*
X191219903Y-90261065D01*
X191120569Y-90023734D01*
X191061829Y-89772770D01*
X191034475Y-89452717D01*
X191029000Y-89111667D01*
X191036153Y-88714205D01*
X191065268Y-88425199D01*
X191127825Y-88184097D01*
X191235307Y-87930348D01*
X191264355Y-87870407D01*
X191618645Y-87327411D01*
X192081490Y-86889748D01*
X192625482Y-86567444D01*
X193223213Y-86370522D01*
X193847277Y-86309007D01*
X194470267Y-86392924D01*
X194891494Y-86543772D01*
X195497058Y-86904809D01*
X195972734Y-87370753D01*
X196283180Y-87857942D01*
X196406731Y-88121247D01*
X196481193Y-88351065D01*
X196518430Y-88607507D01*
X196530308Y-88950686D01*
X196530651Y-89111667D01*
X197124998Y-89111667D01*
X197125000Y-89107245D01*
X197122245Y-88689157D01*
X197107657Y-88391163D01*
X197071748Y-88164043D01*
X197005032Y-87958574D01*
X196898022Y-87725535D01*
X196834248Y-87598664D01*
X196431137Y-86971613D01*
X195936277Y-86471080D01*
X195370036Y-86096682D01*
X194752783Y-85848037D01*
X194104884Y-85724762D01*
X193446707Y-85726475D01*
X192798622Y-85852794D01*
X192180994Y-86103336D01*
X191614193Y-86477719D01*
X191118587Y-86975560D01*
X190714542Y-87596477D01*
X190656226Y-87714667D01*
X190556343Y-87944735D01*
X190491976Y-88158029D01*
X190455565Y-88402566D01*
X190439552Y-88726363D01*
X190436333Y-89111667D01*
X190440712Y-89543982D01*
X190458888Y-89855096D01*
X190498419Y-90093026D01*
X190566863Y-90305789D01*
X190656226Y-90508667D01*
X190837180Y-90828221D01*
X191080009Y-91177583D01*
X191276216Y-91416955D01*
X191500746Y-91690788D01*
X191610211Y-91884836D01*
X191611947Y-91967289D01*
X191509236Y-92120495D01*
X191336652Y-92358787D01*
X191115813Y-92654236D01*
X190868338Y-92978911D01*
X190615844Y-93304884D01*
X190379950Y-93604226D01*
X190182273Y-93849007D01*
X190044432Y-94011298D01*
X189989225Y-94063750D01*
X189879730Y-94039757D01*
X189665608Y-93979314D01*
X189505000Y-93930334D01*
X189215924Y-93867359D01*
X188834422Y-93820948D01*
X188413424Y-93793400D01*
X188005863Y-93787010D01*
X187664669Y-93804077D01*
X187457800Y-93841487D01*
X187379825Y-93850093D01*
X187290406Y-93812507D01*
X187172913Y-93711367D01*
X187010717Y-93529311D01*
X186787188Y-93248976D01*
X186485697Y-92853001D01*
X186393472Y-92730275D01*
X186101276Y-92339810D01*
X185842684Y-91992369D01*
X185635698Y-91712290D01*
X185498318Y-91523907D01*
X185450818Y-91455886D01*
X185453841Y-91325220D01*
X185544147Y-91136269D01*
X185565759Y-91104480D01*
X185923930Y-90465437D01*
X186130612Y-89787911D01*
X186190347Y-89111667D01*
X185568000Y-89111667D01*
X185488725Y-89780765D01*
X185262178Y-90390899D01*
X184905274Y-90924526D01*
X184434930Y-91364107D01*
X183868062Y-91692101D01*
X183221586Y-91890965D01*
X182841667Y-91938724D01*
X182679886Y-91927043D01*
X182423046Y-91887022D01*
X182249001Y-91852902D01*
X181695704Y-91688702D01*
X181232037Y-91434374D01*
X180836101Y-91100676D01*
X180421453Y-90599278D01*
X180156865Y-90037589D01*
X180034290Y-89395906D01*
X180023218Y-89110425D01*
X180031910Y-88732808D01*
X180070304Y-88448838D01*
X180155114Y-88183326D01*
X180299239Y-87868836D01*
X180673720Y-87279309D01*
X181146686Y-86826591D01*
X181710998Y-86515136D01*
X182359515Y-86349402D01*
X182778043Y-86321776D01*
X183152124Y-86331961D01*
X183440408Y-86377761D01*
X183725610Y-86478119D01*
X183980086Y-86597059D01*
X184573858Y-86975117D01*
X185036287Y-87454324D01*
X185359567Y-88022314D01*
X185535886Y-88666720D01*
X185568000Y-89111667D01*
X186190347Y-89111667D01*
X186191846Y-89094703D01*
X186113669Y-88408610D01*
X185902121Y-87752431D01*
X185563240Y-87148965D01*
X185103066Y-86621010D01*
X184527636Y-86191365D01*
X184221984Y-86031211D01*
X183507931Y-85788386D01*
X182786108Y-85703777D01*
X182078256Y-85771193D01*
G36*
X199453333Y-97366667D02*
G01*
X200638666Y-97366667D01*
X200638666Y-98044000D01*
X199538000Y-98044000D01*
X199538000Y-98293960D01*
X199545362Y-98430534D01*
X199593480Y-98507580D01*
X199721400Y-98545402D01*
X199968167Y-98564303D01*
X200067166Y-98569127D01*
X200596333Y-98594334D01*
X200646085Y-99822000D01*
X201319907Y-99822000D01*
X201296787Y-98319167D01*
X201273666Y-96816334D01*
X200363500Y-96792302D01*
X199453333Y-96768271D01*
X199453333Y-97366667D01*
G37*
X199453333Y-97366667D02*
X200638666Y-97366667D01*
X200638666Y-98044000D01*
X199538000Y-98044000D01*
X199538000Y-98293960D01*
X199545362Y-98430534D01*
X199593480Y-98507580D01*
X199721400Y-98545402D01*
X199968167Y-98564303D01*
X200067166Y-98569127D01*
X200596333Y-98594334D01*
X200646085Y-99822000D01*
X201319907Y-99822000D01*
X201296787Y-98319167D01*
X201273666Y-96816334D01*
X200363500Y-96792302D01*
X199453333Y-96768271D01*
X199453333Y-97366667D01*
G36*
X197691037Y-97684643D02*
G01*
X197389004Y-97876827D01*
X197196950Y-98197603D01*
X197170722Y-98280685D01*
X197097395Y-98563736D01*
X197084924Y-98742040D01*
X197158372Y-98839803D01*
X197342801Y-98881230D01*
X197663275Y-98890525D01*
X197802333Y-98890667D01*
X198169472Y-98897161D01*
X198393880Y-98919474D01*
X198501763Y-98961854D01*
X198522000Y-99007300D01*
X198444030Y-99186181D01*
X198218550Y-99304200D01*
X197858205Y-99355487D01*
X197768144Y-99357228D01*
X197498510Y-99363067D01*
X197357067Y-99391510D01*
X197302729Y-99460913D01*
X197294333Y-99568894D01*
X197303998Y-99678705D01*
X197357335Y-99743909D01*
X197490858Y-99778760D01*
X197741080Y-99797509D01*
X197897518Y-99804328D01*
X198225739Y-99811247D01*
X198440789Y-99790624D01*
X198598173Y-99729853D01*
X198753392Y-99616330D01*
X198763822Y-99607588D01*
X199023497Y-99288155D01*
X199151105Y-98906480D01*
X199146545Y-98505386D01*
X199090508Y-98350700D01*
X198522000Y-98350700D01*
X198463212Y-98426622D01*
X198272144Y-98462476D01*
X198101395Y-98467334D01*
X197854258Y-98462066D01*
X197740473Y-98433253D01*
X197724108Y-98361374D01*
X197750695Y-98276834D01*
X197877671Y-98123273D01*
X198074392Y-98059072D01*
X198284756Y-98078857D01*
X198452657Y-98177256D01*
X198521994Y-98348895D01*
X198522000Y-98350700D01*
X199090508Y-98350700D01*
X199009721Y-98127696D01*
X198767905Y-97838514D01*
X198531082Y-97686523D01*
X198255402Y-97625754D01*
X198103588Y-97620667D01*
X197691037Y-97684643D01*
G37*
X197691037Y-97684643D02*
X197389004Y-97876827D01*
X197196950Y-98197603D01*
X197170722Y-98280685D01*
X197097395Y-98563736D01*
X197084924Y-98742040D01*
X197158372Y-98839803D01*
X197342801Y-98881230D01*
X197663275Y-98890525D01*
X197802333Y-98890667D01*
X198169472Y-98897161D01*
X198393880Y-98919474D01*
X198501763Y-98961854D01*
X198522000Y-99007300D01*
X198444030Y-99186181D01*
X198218550Y-99304200D01*
X197858205Y-99355487D01*
X197768144Y-99357228D01*
X197498510Y-99363067D01*
X197357067Y-99391510D01*
X197302729Y-99460913D01*
X197294333Y-99568894D01*
X197303998Y-99678705D01*
X197357335Y-99743909D01*
X197490858Y-99778760D01*
X197741080Y-99797509D01*
X197897518Y-99804328D01*
X198225739Y-99811247D01*
X198440789Y-99790624D01*
X198598173Y-99729853D01*
X198753392Y-99616330D01*
X198763822Y-99607588D01*
X199023497Y-99288155D01*
X199151105Y-98906480D01*
X199146545Y-98505386D01*
X199090508Y-98350700D01*
X198522000Y-98350700D01*
X198463212Y-98426622D01*
X198272144Y-98462476D01*
X198101395Y-98467334D01*
X197854258Y-98462066D01*
X197740473Y-98433253D01*
X197724108Y-98361374D01*
X197750695Y-98276834D01*
X197877671Y-98123273D01*
X198074392Y-98059072D01*
X198284756Y-98078857D01*
X198452657Y-98177256D01*
X198521994Y-98348895D01*
X198522000Y-98350700D01*
X199090508Y-98350700D01*
X199009721Y-98127696D01*
X198767905Y-97838514D01*
X198531082Y-97686523D01*
X198255402Y-97625754D01*
X198103588Y-97620667D01*
X197691037Y-97684643D01*
G36*
X199190402Y-94709310D02*
G01*
X199153518Y-94747633D01*
X199123687Y-94830660D01*
X199175743Y-94889426D01*
X199337566Y-94936890D01*
X199637037Y-94986016D01*
X199679239Y-94992029D01*
X200390441Y-95170959D01*
X201021894Y-95484820D01*
X201558956Y-95915642D01*
X201986985Y-96445456D01*
X202291339Y-97056292D01*
X202457377Y-97730179D01*
X202472966Y-98420793D01*
X202439805Y-98749974D01*
X202401614Y-99034114D01*
X202367487Y-99208167D01*
X202353566Y-99366282D01*
X202415461Y-99410257D01*
X202517586Y-99353485D01*
X202624360Y-99209360D01*
X202673786Y-99092881D01*
X202736206Y-98759502D01*
X202753149Y-98322421D01*
X202728664Y-97839869D01*
X202666799Y-97370073D01*
X202571601Y-96971262D01*
X202516057Y-96823930D01*
X202121514Y-96145597D01*
X201597843Y-95573963D01*
X201191959Y-95264703D01*
X200825247Y-95056033D01*
X200426997Y-94882445D01*
X200030799Y-94752458D01*
X199670241Y-94674593D01*
X199378912Y-94657371D01*
X199190402Y-94709310D01*
G37*
X199190402Y-94709310D02*
X199153518Y-94747633D01*
X199123687Y-94830660D01*
X199175743Y-94889426D01*
X199337566Y-94936890D01*
X199637037Y-94986016D01*
X199679239Y-94992029D01*
X200390441Y-95170959D01*
X201021894Y-95484820D01*
X201558956Y-95915642D01*
X201986985Y-96445456D01*
X202291339Y-97056292D01*
X202457377Y-97730179D01*
X202472966Y-98420793D01*
X202439805Y-98749974D01*
X202401614Y-99034114D01*
X202367487Y-99208167D01*
X202353566Y-99366282D01*
X202415461Y-99410257D01*
X202517586Y-99353485D01*
X202624360Y-99209360D01*
X202673786Y-99092881D01*
X202736206Y-98759502D01*
X202753149Y-98322421D01*
X202728664Y-97839869D01*
X202666799Y-97370073D01*
X202571601Y-96971262D01*
X202516057Y-96823930D01*
X202121514Y-96145597D01*
X201597843Y-95573963D01*
X201191959Y-95264703D01*
X200825247Y-95056033D01*
X200426997Y-94882445D01*
X200030799Y-94752458D01*
X199670241Y-94674593D01*
X199378912Y-94657371D01*
X199190402Y-94709310D01*
G36*
X189399166Y-96792302D02*
G01*
X188489000Y-96816334D01*
X188489000Y-97324334D01*
X189632000Y-97374404D01*
X189632000Y-98044000D01*
X188531333Y-98044000D01*
X188531333Y-98552000D01*
X189632000Y-98552000D01*
X189632000Y-99822000D01*
X190309333Y-99822000D01*
X190309333Y-96768271D01*
X189399166Y-96792302D01*
G37*
X189399166Y-96792302D02*
X188489000Y-96816334D01*
X188489000Y-97324334D01*
X189632000Y-97374404D01*
X189632000Y-98044000D01*
X188531333Y-98044000D01*
X188531333Y-98552000D01*
X189632000Y-98552000D01*
X189632000Y-99822000D01*
X190309333Y-99822000D01*
X190309333Y-96768271D01*
X189399166Y-96792302D01*
G36*
X186762497Y-97643780D02*
G01*
X186579310Y-97707843D01*
X186386119Y-97890345D01*
X186231034Y-98181198D01*
X186145127Y-98519568D01*
X186140391Y-98567239D01*
X186118333Y-98848334D01*
X186816833Y-98872924D01*
X187177389Y-98892565D01*
X187395520Y-98924194D01*
X187498016Y-98973421D01*
X187515333Y-99019139D01*
X187438839Y-99188114D01*
X187238524Y-99313581D01*
X186958139Y-99376401D01*
X186713740Y-99369837D01*
X186476638Y-99347702D01*
X186353205Y-99376754D01*
X186291643Y-99472208D01*
X186283581Y-99496205D01*
X186284047Y-99679108D01*
X186342106Y-99746607D01*
X186520611Y-99797132D01*
X186803650Y-99816236D01*
X187129827Y-99806273D01*
X187437745Y-99769598D01*
X187666008Y-99708565D01*
X187694702Y-99694739D01*
X187910995Y-99500000D01*
X188086665Y-99205977D01*
X188184031Y-98882695D01*
X188192666Y-98769319D01*
X188122189Y-98393656D01*
X188088622Y-98328242D01*
X187500375Y-98328242D01*
X187485894Y-98415267D01*
X187373481Y-98456992D01*
X187140541Y-98467334D01*
X186899875Y-98456500D01*
X186785118Y-98411666D01*
X186753559Y-98314331D01*
X186753333Y-98299613D01*
X186818772Y-98143601D01*
X186979032Y-98066144D01*
X187180028Y-98065169D01*
X187367674Y-98138602D01*
X187487886Y-98284373D01*
X187500375Y-98328242D01*
X188088622Y-98328242D01*
X187937070Y-98032905D01*
X187725842Y-97804216D01*
X187452509Y-97674489D01*
X187104483Y-97618748D01*
X186762497Y-97643780D01*
G37*
X186762497Y-97643780D02*
X186579310Y-97707843D01*
X186386119Y-97890345D01*
X186231034Y-98181198D01*
X186145127Y-98519568D01*
X186140391Y-98567239D01*
X186118333Y-98848334D01*
X186816833Y-98872924D01*
X187177389Y-98892565D01*
X187395520Y-98924194D01*
X187498016Y-98973421D01*
X187515333Y-99019139D01*
X187438839Y-99188114D01*
X187238524Y-99313581D01*
X186958139Y-99376401D01*
X186713740Y-99369837D01*
X186476638Y-99347702D01*
X186353205Y-99376754D01*
X186291643Y-99472208D01*
X186283581Y-99496205D01*
X186284047Y-99679108D01*
X186342106Y-99746607D01*
X186520611Y-99797132D01*
X186803650Y-99816236D01*
X187129827Y-99806273D01*
X187437745Y-99769598D01*
X187666008Y-99708565D01*
X187694702Y-99694739D01*
X187910995Y-99500000D01*
X188086665Y-99205977D01*
X188184031Y-98882695D01*
X188192666Y-98769319D01*
X188122189Y-98393656D01*
X188088622Y-98328242D01*
X187500375Y-98328242D01*
X187485894Y-98415267D01*
X187373481Y-98456992D01*
X187140541Y-98467334D01*
X186899875Y-98456500D01*
X186785118Y-98411666D01*
X186753559Y-98314331D01*
X186753333Y-98299613D01*
X186818772Y-98143601D01*
X186979032Y-98066144D01*
X187180028Y-98065169D01*
X187367674Y-98138602D01*
X187487886Y-98284373D01*
X187500375Y-98328242D01*
X188088622Y-98328242D01*
X187937070Y-98032905D01*
X187725842Y-97804216D01*
X187452509Y-97674489D01*
X187104483Y-97618748D01*
X186762497Y-97643780D01*
G36*
X188231173Y-94689420D02*
G01*
X188131316Y-94765217D01*
X188184757Y-94847295D01*
X188376140Y-94926769D01*
X188690109Y-94994756D01*
X188782615Y-95008461D01*
X189442803Y-95181517D01*
X190055317Y-95502868D01*
X190593841Y-95952828D01*
X191032064Y-96511712D01*
X191201631Y-96818180D01*
X191325055Y-97094961D01*
X191399324Y-97339894D01*
X191436616Y-97615222D01*
X191449110Y-97983188D01*
X191449753Y-98086334D01*
X191443110Y-98465449D01*
X191423167Y-98811852D01*
X191393725Y-99067268D01*
X191382106Y-99123500D01*
X191348643Y-99314596D01*
X191388160Y-99390692D01*
X191440609Y-99398667D01*
X191580832Y-99359884D01*
X191611259Y-99330840D01*
X191646347Y-99217781D01*
X191697137Y-98988454D01*
X191749514Y-98709809D01*
X191790433Y-97999819D01*
X191676523Y-97298303D01*
X191421365Y-96631423D01*
X191038537Y-96025337D01*
X190541618Y-95506205D01*
X189944189Y-95100185D01*
X189851167Y-95052813D01*
X189487474Y-94901128D01*
X189094555Y-94779120D01*
X188719721Y-94697403D01*
X188410286Y-94666590D01*
X188231173Y-94689420D01*
G37*
X188231173Y-94689420D02*
X188131316Y-94765217D01*
X188184757Y-94847295D01*
X188376140Y-94926769D01*
X188690109Y-94994756D01*
X188782615Y-95008461D01*
X189442803Y-95181517D01*
X190055317Y-95502868D01*
X190593841Y-95952828D01*
X191032064Y-96511712D01*
X191201631Y-96818180D01*
X191325055Y-97094961D01*
X191399324Y-97339894D01*
X191436616Y-97615222D01*
X191449110Y-97983188D01*
X191449753Y-98086334D01*
X191443110Y-98465449D01*
X191423167Y-98811852D01*
X191393725Y-99067268D01*
X191382106Y-99123500D01*
X191348643Y-99314596D01*
X191388160Y-99390692D01*
X191440609Y-99398667D01*
X191580832Y-99359884D01*
X191611259Y-99330840D01*
X191646347Y-99217781D01*
X191697137Y-98988454D01*
X191749514Y-98709809D01*
X191790433Y-97999819D01*
X191676523Y-97298303D01*
X191421365Y-96631423D01*
X191038537Y-96025337D01*
X190541618Y-95506205D01*
X189944189Y-95100185D01*
X189851167Y-95052813D01*
X189487474Y-94901128D01*
X189094555Y-94779120D01*
X188719721Y-94697403D01*
X188410286Y-94666590D01*
X188231173Y-94689420D01*
G36*
X204164274Y-87758743D02*
G01*
X203774853Y-87966169D01*
X203473139Y-88316697D01*
X203450631Y-88354385D01*
X203344289Y-88569700D01*
X203289966Y-88788862D01*
X203276357Y-89075390D01*
X203282679Y-89297871D01*
X203328911Y-89739939D01*
X203440510Y-90069343D01*
X203642418Y-90337855D01*
X203881260Y-90540284D01*
X204151132Y-90663690D01*
X204514675Y-90731468D01*
X204904053Y-90738867D01*
X205251429Y-90681138D01*
X205353421Y-90643369D01*
X205564022Y-90497498D01*
X205780689Y-90271772D01*
X205857686Y-90167024D01*
X205991144Y-89936322D01*
X206062562Y-89712337D01*
X206089691Y-89424791D01*
X206092196Y-89238667D01*
X206086303Y-89070252D01*
X205410931Y-89070252D01*
X205394125Y-89474204D01*
X205286937Y-89843055D01*
X205121534Y-90089799D01*
X204870587Y-90232345D01*
X204574981Y-90244629D01*
X204294556Y-90129633D01*
X204195278Y-90043651D01*
X204038907Y-89773594D01*
X203955144Y-89412687D01*
X203949718Y-89025648D01*
X204028359Y-88677193D01*
X204066935Y-88594031D01*
X204278560Y-88344644D01*
X204553807Y-88212694D01*
X204846403Y-88206732D01*
X205110076Y-88335314D01*
X205167130Y-88390670D01*
X205335789Y-88689605D01*
X205410931Y-89070252D01*
X206086303Y-89070252D01*
X206080082Y-88892502D01*
X206032207Y-88645107D01*
X205931272Y-88426927D01*
X205863459Y-88319034D01*
X205553417Y-87969105D01*
X205171914Y-87763751D01*
X204695694Y-87690940D01*
X204648513Y-87690476D01*
X204164274Y-87758743D01*
G37*
X204164274Y-87758743D02*
X203774853Y-87966169D01*
X203473139Y-88316697D01*
X203450631Y-88354385D01*
X203344289Y-88569700D01*
X203289966Y-88788862D01*
X203276357Y-89075390D01*
X203282679Y-89297871D01*
X203328911Y-89739939D01*
X203440510Y-90069343D01*
X203642418Y-90337855D01*
X203881260Y-90540284D01*
X204151132Y-90663690D01*
X204514675Y-90731468D01*
X204904053Y-90738867D01*
X205251429Y-90681138D01*
X205353421Y-90643369D01*
X205564022Y-90497498D01*
X205780689Y-90271772D01*
X205857686Y-90167024D01*
X205991144Y-89936322D01*
X206062562Y-89712337D01*
X206089691Y-89424791D01*
X206092196Y-89238667D01*
X206086303Y-89070252D01*
X205410931Y-89070252D01*
X205394125Y-89474204D01*
X205286937Y-89843055D01*
X205121534Y-90089799D01*
X204870587Y-90232345D01*
X204574981Y-90244629D01*
X204294556Y-90129633D01*
X204195278Y-90043651D01*
X204038907Y-89773594D01*
X203955144Y-89412687D01*
X203949718Y-89025648D01*
X204028359Y-88677193D01*
X204066935Y-88594031D01*
X204278560Y-88344644D01*
X204553807Y-88212694D01*
X204846403Y-88206732D01*
X205110076Y-88335314D01*
X205167130Y-88390670D01*
X205335789Y-88689605D01*
X205410931Y-89070252D01*
X206086303Y-89070252D01*
X206080082Y-88892502D01*
X206032207Y-88645107D01*
X205931272Y-88426927D01*
X205863459Y-88319034D01*
X205553417Y-87969105D01*
X205171914Y-87763751D01*
X204695694Y-87690940D01*
X204648513Y-87690476D01*
X204164274Y-87758743D01*
G36*
X204707715Y-86708732D02*
G01*
X204660333Y-86782287D01*
X204741303Y-86884047D01*
X204986027Y-86955779D01*
X205041333Y-86964671D01*
X205468185Y-87052855D01*
X205803481Y-87193671D01*
X206124162Y-87422917D01*
X206235805Y-87520388D01*
X206596101Y-87923726D01*
X206819574Y-88376020D01*
X206920432Y-88912034D01*
X206929376Y-89217500D01*
X206935154Y-89562375D01*
X206964409Y-89759781D01*
X207020539Y-89830389D01*
X207030331Y-89831334D01*
X207133550Y-89759916D01*
X207189302Y-89640834D01*
X207251829Y-89096865D01*
X207169134Y-88538754D01*
X206958332Y-88000526D01*
X206636539Y-87516210D01*
X206220868Y-87119833D01*
X205797414Y-86873527D01*
X205462100Y-86754756D01*
X205144025Y-86685720D01*
X204880220Y-86669388D01*
X204707715Y-86708732D01*
G37*
X204707715Y-86708732D02*
X204660333Y-86782287D01*
X204741303Y-86884047D01*
X204986027Y-86955779D01*
X205041333Y-86964671D01*
X205468185Y-87052855D01*
X205803481Y-87193671D01*
X206124162Y-87422917D01*
X206235805Y-87520388D01*
X206596101Y-87923726D01*
X206819574Y-88376020D01*
X206920432Y-88912034D01*
X206929376Y-89217500D01*
X206935154Y-89562375D01*
X206964409Y-89759781D01*
X207020539Y-89830389D01*
X207030331Y-89831334D01*
X207133550Y-89759916D01*
X207189302Y-89640834D01*
X207251829Y-89096865D01*
X207169134Y-88538754D01*
X206958332Y-88000526D01*
X206636539Y-87516210D01*
X206220868Y-87119833D01*
X205797414Y-86873527D01*
X205462100Y-86754756D01*
X205144025Y-86685720D01*
X204880220Y-86669388D01*
X204707715Y-86708732D01*
G36*
X193335448Y-87729308D02*
G01*
X193208716Y-87761672D01*
X192907764Y-87871024D01*
X192701937Y-88020325D01*
X192531383Y-88240499D01*
X192408952Y-88447763D01*
X192338575Y-88646301D01*
X192306507Y-88895697D01*
X192299000Y-89247849D01*
X192320778Y-89684945D01*
X192400936Y-90006533D01*
X192561707Y-90262539D01*
X192825325Y-90502884D01*
X192874594Y-90540284D01*
X193139958Y-90661577D01*
X193499081Y-90729998D01*
X193883261Y-90740439D01*
X194223800Y-90687792D01*
X194331000Y-90648574D01*
X194688274Y-90397012D01*
X194946499Y-90037082D01*
X195095572Y-89604507D01*
X195118713Y-89240085D01*
X194433283Y-89240085D01*
X194384525Y-89602909D01*
X194252877Y-89906014D01*
X194057971Y-90128628D01*
X193819436Y-90249980D01*
X193556904Y-90249297D01*
X193290004Y-90105807D01*
X193232096Y-90052460D01*
X193033643Y-89760170D01*
X192940949Y-89416338D01*
X192945086Y-89057598D01*
X193037131Y-88720588D01*
X193208158Y-88441942D01*
X193449243Y-88258298D01*
X193682277Y-88204510D01*
X193991994Y-88271143D01*
X194227096Y-88487432D01*
X194379521Y-88838314D01*
X194433283Y-89240085D01*
X195118713Y-89240085D01*
X195125386Y-89135012D01*
X195025839Y-88664319D01*
X194944833Y-88478397D01*
X194654135Y-88065563D01*
X194283788Y-87800950D01*
X193841617Y-87687788D01*
X193335448Y-87729308D01*
G37*
X193335448Y-87729308D02*
X193208716Y-87761672D01*
X192907764Y-87871024D01*
X192701937Y-88020325D01*
X192531383Y-88240499D01*
X192408952Y-88447763D01*
X192338575Y-88646301D01*
X192306507Y-88895697D01*
X192299000Y-89247849D01*
X192320778Y-89684945D01*
X192400936Y-90006533D01*
X192561707Y-90262539D01*
X192825325Y-90502884D01*
X192874594Y-90540284D01*
X193139958Y-90661577D01*
X193499081Y-90729998D01*
X193883261Y-90740439D01*
X194223800Y-90687792D01*
X194331000Y-90648574D01*
X194688274Y-90397012D01*
X194946499Y-90037082D01*
X195095572Y-89604507D01*
X195118713Y-89240085D01*
X194433283Y-89240085D01*
X194384525Y-89602909D01*
X194252877Y-89906014D01*
X194057971Y-90128628D01*
X193819436Y-90249980D01*
X193556904Y-90249297D01*
X193290004Y-90105807D01*
X193232096Y-90052460D01*
X193033643Y-89760170D01*
X192940949Y-89416338D01*
X192945086Y-89057598D01*
X193037131Y-88720588D01*
X193208158Y-88441942D01*
X193449243Y-88258298D01*
X193682277Y-88204510D01*
X193991994Y-88271143D01*
X194227096Y-88487432D01*
X194379521Y-88838314D01*
X194433283Y-89240085D01*
X195118713Y-89240085D01*
X195125386Y-89135012D01*
X195025839Y-88664319D01*
X194944833Y-88478397D01*
X194654135Y-88065563D01*
X194283788Y-87800950D01*
X193841617Y-87687788D01*
X193335448Y-87729308D01*
G36*
X193653665Y-86698671D02*
G01*
X193653453Y-86699012D01*
X193652250Y-86820079D01*
X193790809Y-86910303D01*
X194040088Y-86952255D01*
X194077000Y-86953230D01*
X194510027Y-87037763D01*
X194943230Y-87265398D01*
X195344897Y-87612935D01*
X195683317Y-88057171D01*
X195754169Y-88180334D01*
X195856965Y-88414469D01*
X195912390Y-88675674D01*
X195931117Y-89023989D01*
X195930999Y-89175167D01*
X195935720Y-89527928D01*
X195960653Y-89736282D01*
X196009677Y-89824367D01*
X196036453Y-89831334D01*
X196137323Y-89759042D01*
X196203060Y-89612382D01*
X196235883Y-89296711D01*
X196215448Y-88895555D01*
X196150848Y-88480868D01*
X196051172Y-88124602D01*
X196000423Y-88008510D01*
X195659034Y-87521713D01*
X195194337Y-87115406D01*
X194643323Y-86815505D01*
X194062870Y-86651023D01*
X193787177Y-86634860D01*
X193653665Y-86698671D01*
G37*
X193653665Y-86698671D02*
X193653453Y-86699012D01*
X193652250Y-86820079D01*
X193790809Y-86910303D01*
X194040088Y-86952255D01*
X194077000Y-86953230D01*
X194510027Y-87037763D01*
X194943230Y-87265398D01*
X195344897Y-87612935D01*
X195683317Y-88057171D01*
X195754169Y-88180334D01*
X195856965Y-88414469D01*
X195912390Y-88675674D01*
X195931117Y-89023989D01*
X195930999Y-89175167D01*
X195935720Y-89527928D01*
X195960653Y-89736282D01*
X196009677Y-89824367D01*
X196036453Y-89831334D01*
X196137323Y-89759042D01*
X196203060Y-89612382D01*
X196235883Y-89296711D01*
X196215448Y-88895555D01*
X196150848Y-88480868D01*
X196051172Y-88124602D01*
X196000423Y-88008510D01*
X195659034Y-87521713D01*
X195194337Y-87115406D01*
X194643323Y-86815505D01*
X194062870Y-86651023D01*
X193787177Y-86634860D01*
X193653665Y-86698671D01*
G36*
X182445037Y-87705003D02*
G01*
X182357473Y-87722209D01*
X181931642Y-87896167D01*
X181598222Y-88189628D01*
X181369072Y-88573146D01*
X181256050Y-89017274D01*
X181271016Y-89492569D01*
X181425831Y-89969583D01*
X181440500Y-89998937D01*
X181671808Y-90358573D01*
X181949797Y-90586550D01*
X182316168Y-90709094D01*
X182626745Y-90744963D01*
X182948969Y-90753277D01*
X183171401Y-90720529D01*
X183361347Y-90633092D01*
X183443548Y-90579584D01*
X183786263Y-90287889D01*
X183993083Y-89954951D01*
X184095753Y-89527186D01*
X184102552Y-89467225D01*
X184093700Y-89081831D01*
X183429397Y-89081831D01*
X183425520Y-89422489D01*
X183347026Y-89743927D01*
X183194029Y-90012279D01*
X182966648Y-90193681D01*
X182689333Y-90254667D01*
X182394041Y-90176905D01*
X182225429Y-90052460D01*
X182032114Y-89766355D01*
X181941481Y-89427523D01*
X181944342Y-89072030D01*
X182031506Y-88735937D01*
X182193782Y-88455310D01*
X182421981Y-88266211D01*
X182696390Y-88204314D01*
X182992152Y-88283195D01*
X183212829Y-88478318D01*
X183358539Y-88755819D01*
X183429397Y-89081831D01*
X184093700Y-89081831D01*
X184090258Y-88932009D01*
X183948538Y-88469557D01*
X183695274Y-88097749D01*
X183348348Y-87834466D01*
X182925642Y-87697591D01*
X182445037Y-87705003D01*
G37*
X182445037Y-87705003D02*
X182357473Y-87722209D01*
X181931642Y-87896167D01*
X181598222Y-88189628D01*
X181369072Y-88573146D01*
X181256050Y-89017274D01*
X181271016Y-89492569D01*
X181425831Y-89969583D01*
X181440500Y-89998937D01*
X181671808Y-90358573D01*
X181949797Y-90586550D01*
X182316168Y-90709094D01*
X182626745Y-90744963D01*
X182948969Y-90753277D01*
X183171401Y-90720529D01*
X183361347Y-90633092D01*
X183443548Y-90579584D01*
X183786263Y-90287889D01*
X183993083Y-89954951D01*
X184095753Y-89527186D01*
X184102552Y-89467225D01*
X184093700Y-89081831D01*
X183429397Y-89081831D01*
X183425520Y-89422489D01*
X183347026Y-89743927D01*
X183194029Y-90012279D01*
X182966648Y-90193681D01*
X182689333Y-90254667D01*
X182394041Y-90176905D01*
X182225429Y-90052460D01*
X182032114Y-89766355D01*
X181941481Y-89427523D01*
X181944342Y-89072030D01*
X182031506Y-88735937D01*
X182193782Y-88455310D01*
X182421981Y-88266211D01*
X182696390Y-88204314D01*
X182992152Y-88283195D01*
X183212829Y-88478318D01*
X183358539Y-88755819D01*
X183429397Y-89081831D01*
X184093700Y-89081831D01*
X184090258Y-88932009D01*
X183948538Y-88469557D01*
X183695274Y-88097749D01*
X183348348Y-87834466D01*
X182925642Y-87697591D01*
X182445037Y-87705003D01*
G36*
X182723355Y-86635015D02*
G01*
X182696150Y-86698958D01*
X182703186Y-86750404D01*
X182778348Y-86864324D01*
X182972235Y-86937629D01*
X183121868Y-86964057D01*
X183683082Y-87123936D01*
X184163382Y-87417784D01*
X184545461Y-87822637D01*
X184812013Y-88315531D01*
X184945730Y-88873502D01*
X184942291Y-89379505D01*
X184920348Y-89652833D01*
X184939782Y-89792813D01*
X185002816Y-89831334D01*
X185147101Y-89793961D01*
X185172889Y-89774889D01*
X185200716Y-89667824D01*
X185220612Y-89439552D01*
X185228503Y-89138152D01*
X185228506Y-89118722D01*
X185149444Y-88472223D01*
X184924404Y-87894674D01*
X184568817Y-87403822D01*
X184098111Y-87017412D01*
X183527715Y-86753190D01*
X183083201Y-86651269D01*
X182839447Y-86622491D01*
X182723355Y-86635015D01*
G37*
X182723355Y-86635015D02*
X182696150Y-86698958D01*
X182703186Y-86750404D01*
X182778348Y-86864324D01*
X182972235Y-86937629D01*
X183121868Y-86964057D01*
X183683082Y-87123936D01*
X184163382Y-87417784D01*
X184545461Y-87822637D01*
X184812013Y-88315531D01*
X184945730Y-88873502D01*
X184942291Y-89379505D01*
X184920348Y-89652833D01*
X184939782Y-89792813D01*
X185002816Y-89831334D01*
X185147101Y-89793961D01*
X185172889Y-89774889D01*
X185200716Y-89667824D01*
X185220612Y-89439552D01*
X185228503Y-89138152D01*
X185228506Y-89118722D01*
X185149444Y-88472223D01*
X184924404Y-87894674D01*
X184568817Y-87403822D01*
X184098111Y-87017412D01*
X183527715Y-86753190D01*
X183083201Y-86651269D01*
X182839447Y-86622491D01*
X182723355Y-86635015D01*
G04 #@! TD*
G04 #@! TO.C,CON1*
D15*
X109494285Y-118787142D02*
X109541904Y-118834761D01*
X109684761Y-118882380D01*
X109780000Y-118882380D01*
X109922857Y-118834761D01*
X110018095Y-118739523D01*
X110065714Y-118644285D01*
X110113333Y-118453809D01*
X110113333Y-118310952D01*
X110065714Y-118120476D01*
X110018095Y-118025238D01*
X109922857Y-117930000D01*
X109780000Y-117882380D01*
X109684761Y-117882380D01*
X109541904Y-117930000D01*
X109494285Y-117977619D01*
X108875238Y-117882380D02*
X108684761Y-117882380D01*
X108589523Y-117930000D01*
X108494285Y-118025238D01*
X108446666Y-118215714D01*
X108446666Y-118549047D01*
X108494285Y-118739523D01*
X108589523Y-118834761D01*
X108684761Y-118882380D01*
X108875238Y-118882380D01*
X108970476Y-118834761D01*
X109065714Y-118739523D01*
X109113333Y-118549047D01*
X109113333Y-118215714D01*
X109065714Y-118025238D01*
X108970476Y-117930000D01*
X108875238Y-117882380D01*
X108018095Y-118882380D02*
X108018095Y-117882380D01*
X107446666Y-118882380D01*
X107446666Y-117882380D01*
X106446666Y-118882380D02*
X107018095Y-118882380D01*
X106732380Y-118882380D02*
X106732380Y-117882380D01*
X106827619Y-118025238D01*
X106922857Y-118120476D01*
X107018095Y-118168095D01*
G04 #@! TD*
M02*
