G04 #@! TF.GenerationSoftware,KiCad,Pcbnew,5.1.5-52549c5~84~ubuntu18.04.1*
G04 #@! TF.CreationDate,2020-03-14T11:46:24+01:00*
G04 #@! TF.ProjectId,Fe203,46653230-332e-46b6-9963-61645f706362,rev?*
G04 #@! TF.SameCoordinates,Original*
G04 #@! TF.FileFunction,Soldermask,Top*
G04 #@! TF.FilePolarity,Negative*
%FSLAX46Y46*%
G04 Gerber Fmt 4.6, Leading zero omitted, Abs format (unit mm)*
G04 Created by KiCad (PCBNEW 5.1.5-52549c5~84~ubuntu18.04.1) date 2020-03-14 11:46:24*
%MOMM*%
%LPD*%
G04 APERTURE LIST*
G04 #@! TA.AperFunction,Profile*
%ADD10C,0.200000*%
G04 #@! TD*
%ADD11C,0.150000*%
G04 APERTURE END LIST*
D10*
X106325985Y-137454210D02*
X107730129Y-138030000D01*
X64310008Y-95193254D02*
X64905850Y-96617463D01*
X214909985Y-56030000D02*
X123910000Y-56030000D01*
X209409985Y-59030000D02*
G75*
G03X209409985Y-59030000I-1500000J0D01*
G01*
X85410000Y-109030000D02*
G75*
G03X85410000Y-109030000I-1500000J0D01*
G01*
X107730129Y-138030000D02*
X216909985Y-138030000D01*
X64310009Y-63030001D02*
G75*
G02X66310008Y-61030000I2000000J1D01*
G01*
X64905850Y-96617463D02*
X106325985Y-137454210D01*
X121910000Y-58030000D02*
X121910000Y-59030000D01*
X119910000Y-61030000D02*
X66310009Y-61030000D01*
X214909985Y-56030000D02*
G75*
G02X216909985Y-58030000I0J-2000000D01*
G01*
X121910000Y-58030001D02*
G75*
G02X123909999Y-56030000I2000000J1D01*
G01*
X121910000Y-59030001D02*
G75*
G02X119909999Y-61030000I-2000000J1D01*
G01*
X64310008Y-95193254D02*
X64310008Y-63030000D01*
X216909985Y-58030000D02*
X216909985Y-138030000D01*
X213409985Y-133030000D02*
G75*
G03X213409985Y-133030000I-1500000J0D01*
G01*
X127410000Y-59030000D02*
G75*
G03X127410000Y-59030000I-1500000J0D01*
G01*
D11*
G36*
X171296564Y-125109389D02*
G01*
X171487833Y-125188615D01*
X171487835Y-125188616D01*
X171659973Y-125303635D01*
X171806365Y-125450027D01*
X171921385Y-125622167D01*
X172000611Y-125813436D01*
X172041000Y-126016484D01*
X172041000Y-126223516D01*
X172000611Y-126426564D01*
X171921385Y-126617833D01*
X171921384Y-126617835D01*
X171806365Y-126789973D01*
X171659973Y-126936365D01*
X171487835Y-127051384D01*
X171487834Y-127051385D01*
X171487833Y-127051385D01*
X171296564Y-127130611D01*
X171093516Y-127171000D01*
X170886484Y-127171000D01*
X170683436Y-127130611D01*
X170492167Y-127051385D01*
X170492166Y-127051385D01*
X170492165Y-127051384D01*
X170320027Y-126936365D01*
X170173635Y-126789973D01*
X170058616Y-126617835D01*
X170058615Y-126617833D01*
X169979389Y-126426564D01*
X169939000Y-126223516D01*
X169939000Y-126016484D01*
X169979389Y-125813436D01*
X170058615Y-125622167D01*
X170173635Y-125450027D01*
X170320027Y-125303635D01*
X170492165Y-125188616D01*
X170492167Y-125188615D01*
X170683436Y-125109389D01*
X170886484Y-125069000D01*
X171093516Y-125069000D01*
X171296564Y-125109389D01*
G37*
G36*
X166216564Y-125109389D02*
G01*
X166407833Y-125188615D01*
X166407835Y-125188616D01*
X166579973Y-125303635D01*
X166726365Y-125450027D01*
X166841385Y-125622167D01*
X166920611Y-125813436D01*
X166961000Y-126016484D01*
X166961000Y-126223516D01*
X166920611Y-126426564D01*
X166841385Y-126617833D01*
X166841384Y-126617835D01*
X166726365Y-126789973D01*
X166579973Y-126936365D01*
X166407835Y-127051384D01*
X166407834Y-127051385D01*
X166407833Y-127051385D01*
X166216564Y-127130611D01*
X166013516Y-127171000D01*
X165806484Y-127171000D01*
X165603436Y-127130611D01*
X165412167Y-127051385D01*
X165412166Y-127051385D01*
X165412165Y-127051384D01*
X165240027Y-126936365D01*
X165093635Y-126789973D01*
X164978616Y-126617835D01*
X164978615Y-126617833D01*
X164899389Y-126426564D01*
X164859000Y-126223516D01*
X164859000Y-126016484D01*
X164899389Y-125813436D01*
X164978615Y-125622167D01*
X165093635Y-125450027D01*
X165240027Y-125303635D01*
X165412165Y-125188616D01*
X165412167Y-125188615D01*
X165603436Y-125109389D01*
X165806484Y-125069000D01*
X166013516Y-125069000D01*
X166216564Y-125109389D01*
G37*
G36*
X163676564Y-125109389D02*
G01*
X163867833Y-125188615D01*
X163867835Y-125188616D01*
X164039973Y-125303635D01*
X164186365Y-125450027D01*
X164301385Y-125622167D01*
X164380611Y-125813436D01*
X164421000Y-126016484D01*
X164421000Y-126223516D01*
X164380611Y-126426564D01*
X164301385Y-126617833D01*
X164301384Y-126617835D01*
X164186365Y-126789973D01*
X164039973Y-126936365D01*
X163867835Y-127051384D01*
X163867834Y-127051385D01*
X163867833Y-127051385D01*
X163676564Y-127130611D01*
X163473516Y-127171000D01*
X163266484Y-127171000D01*
X163063436Y-127130611D01*
X162872167Y-127051385D01*
X162872166Y-127051385D01*
X162872165Y-127051384D01*
X162700027Y-126936365D01*
X162553635Y-126789973D01*
X162438616Y-126617835D01*
X162438615Y-126617833D01*
X162359389Y-126426564D01*
X162319000Y-126223516D01*
X162319000Y-126016484D01*
X162359389Y-125813436D01*
X162438615Y-125622167D01*
X162553635Y-125450027D01*
X162700027Y-125303635D01*
X162872165Y-125188616D01*
X162872167Y-125188615D01*
X163063436Y-125109389D01*
X163266484Y-125069000D01*
X163473516Y-125069000D01*
X163676564Y-125109389D01*
G37*
G36*
X161136564Y-125109389D02*
G01*
X161327833Y-125188615D01*
X161327835Y-125188616D01*
X161499973Y-125303635D01*
X161646365Y-125450027D01*
X161761385Y-125622167D01*
X161840611Y-125813436D01*
X161881000Y-126016484D01*
X161881000Y-126223516D01*
X161840611Y-126426564D01*
X161761385Y-126617833D01*
X161761384Y-126617835D01*
X161646365Y-126789973D01*
X161499973Y-126936365D01*
X161327835Y-127051384D01*
X161327834Y-127051385D01*
X161327833Y-127051385D01*
X161136564Y-127130611D01*
X160933516Y-127171000D01*
X160726484Y-127171000D01*
X160523436Y-127130611D01*
X160332167Y-127051385D01*
X160332166Y-127051385D01*
X160332165Y-127051384D01*
X160160027Y-126936365D01*
X160013635Y-126789973D01*
X159898616Y-126617835D01*
X159898615Y-126617833D01*
X159819389Y-126426564D01*
X159779000Y-126223516D01*
X159779000Y-126016484D01*
X159819389Y-125813436D01*
X159898615Y-125622167D01*
X160013635Y-125450027D01*
X160160027Y-125303635D01*
X160332165Y-125188616D01*
X160332167Y-125188615D01*
X160523436Y-125109389D01*
X160726484Y-125069000D01*
X160933516Y-125069000D01*
X161136564Y-125109389D01*
G37*
G36*
X168756564Y-125109389D02*
G01*
X168947833Y-125188615D01*
X168947835Y-125188616D01*
X169119973Y-125303635D01*
X169266365Y-125450027D01*
X169381385Y-125622167D01*
X169460611Y-125813436D01*
X169501000Y-126016484D01*
X169501000Y-126223516D01*
X169460611Y-126426564D01*
X169381385Y-126617833D01*
X169381384Y-126617835D01*
X169266365Y-126789973D01*
X169119973Y-126936365D01*
X168947835Y-127051384D01*
X168947834Y-127051385D01*
X168947833Y-127051385D01*
X168756564Y-127130611D01*
X168553516Y-127171000D01*
X168346484Y-127171000D01*
X168143436Y-127130611D01*
X167952167Y-127051385D01*
X167952166Y-127051385D01*
X167952165Y-127051384D01*
X167780027Y-126936365D01*
X167633635Y-126789973D01*
X167518616Y-126617835D01*
X167518615Y-126617833D01*
X167439389Y-126426564D01*
X167399000Y-126223516D01*
X167399000Y-126016484D01*
X167439389Y-125813436D01*
X167518615Y-125622167D01*
X167633635Y-125450027D01*
X167780027Y-125303635D01*
X167952165Y-125188616D01*
X167952167Y-125188615D01*
X168143436Y-125109389D01*
X168346484Y-125069000D01*
X168553516Y-125069000D01*
X168756564Y-125109389D01*
G37*
G36*
X118276564Y-113209389D02*
G01*
X118467833Y-113288615D01*
X118467835Y-113288616D01*
X118639973Y-113403635D01*
X118786365Y-113550027D01*
X118901385Y-113722167D01*
X118980611Y-113913436D01*
X119021000Y-114116484D01*
X119021000Y-114323516D01*
X118980611Y-114526564D01*
X118901385Y-114717833D01*
X118901384Y-114717835D01*
X118786365Y-114889973D01*
X118639973Y-115036365D01*
X118467835Y-115151384D01*
X118467834Y-115151385D01*
X118467833Y-115151385D01*
X118276564Y-115230611D01*
X118073516Y-115271000D01*
X117866484Y-115271000D01*
X117663436Y-115230611D01*
X117472167Y-115151385D01*
X117472166Y-115151385D01*
X117472165Y-115151384D01*
X117300027Y-115036365D01*
X117153635Y-114889973D01*
X117038616Y-114717835D01*
X117038615Y-114717833D01*
X116959389Y-114526564D01*
X116919000Y-114323516D01*
X116919000Y-114116484D01*
X116959389Y-113913436D01*
X117038615Y-113722167D01*
X117153635Y-113550027D01*
X117300027Y-113403635D01*
X117472165Y-113288616D01*
X117472167Y-113288615D01*
X117663436Y-113209389D01*
X117866484Y-113169000D01*
X118073516Y-113169000D01*
X118276564Y-113209389D01*
G37*
G36*
X130976564Y-113209389D02*
G01*
X131167833Y-113288615D01*
X131167835Y-113288616D01*
X131339973Y-113403635D01*
X131486365Y-113550027D01*
X131601385Y-113722167D01*
X131680611Y-113913436D01*
X131721000Y-114116484D01*
X131721000Y-114323516D01*
X131680611Y-114526564D01*
X131601385Y-114717833D01*
X131601384Y-114717835D01*
X131486365Y-114889973D01*
X131339973Y-115036365D01*
X131167835Y-115151384D01*
X131167834Y-115151385D01*
X131167833Y-115151385D01*
X130976564Y-115230611D01*
X130773516Y-115271000D01*
X130566484Y-115271000D01*
X130363436Y-115230611D01*
X130172167Y-115151385D01*
X130172166Y-115151385D01*
X130172165Y-115151384D01*
X130000027Y-115036365D01*
X129853635Y-114889973D01*
X129738616Y-114717835D01*
X129738615Y-114717833D01*
X129659389Y-114526564D01*
X129619000Y-114323516D01*
X129619000Y-114116484D01*
X129659389Y-113913436D01*
X129738615Y-113722167D01*
X129853635Y-113550027D01*
X130000027Y-113403635D01*
X130172165Y-113288616D01*
X130172167Y-113288615D01*
X130363436Y-113209389D01*
X130566484Y-113169000D01*
X130773516Y-113169000D01*
X130976564Y-113209389D01*
G37*
G36*
X128436564Y-113209389D02*
G01*
X128627833Y-113288615D01*
X128627835Y-113288616D01*
X128799973Y-113403635D01*
X128946365Y-113550027D01*
X129061385Y-113722167D01*
X129140611Y-113913436D01*
X129181000Y-114116484D01*
X129181000Y-114323516D01*
X129140611Y-114526564D01*
X129061385Y-114717833D01*
X129061384Y-114717835D01*
X128946365Y-114889973D01*
X128799973Y-115036365D01*
X128627835Y-115151384D01*
X128627834Y-115151385D01*
X128627833Y-115151385D01*
X128436564Y-115230611D01*
X128233516Y-115271000D01*
X128026484Y-115271000D01*
X127823436Y-115230611D01*
X127632167Y-115151385D01*
X127632166Y-115151385D01*
X127632165Y-115151384D01*
X127460027Y-115036365D01*
X127313635Y-114889973D01*
X127198616Y-114717835D01*
X127198615Y-114717833D01*
X127119389Y-114526564D01*
X127079000Y-114323516D01*
X127079000Y-114116484D01*
X127119389Y-113913436D01*
X127198615Y-113722167D01*
X127313635Y-113550027D01*
X127460027Y-113403635D01*
X127632165Y-113288616D01*
X127632167Y-113288615D01*
X127823436Y-113209389D01*
X128026484Y-113169000D01*
X128233516Y-113169000D01*
X128436564Y-113209389D01*
G37*
G36*
X125896564Y-113209389D02*
G01*
X126087833Y-113288615D01*
X126087835Y-113288616D01*
X126259973Y-113403635D01*
X126406365Y-113550027D01*
X126521385Y-113722167D01*
X126600611Y-113913436D01*
X126641000Y-114116484D01*
X126641000Y-114323516D01*
X126600611Y-114526564D01*
X126521385Y-114717833D01*
X126521384Y-114717835D01*
X126406365Y-114889973D01*
X126259973Y-115036365D01*
X126087835Y-115151384D01*
X126087834Y-115151385D01*
X126087833Y-115151385D01*
X125896564Y-115230611D01*
X125693516Y-115271000D01*
X125486484Y-115271000D01*
X125283436Y-115230611D01*
X125092167Y-115151385D01*
X125092166Y-115151385D01*
X125092165Y-115151384D01*
X124920027Y-115036365D01*
X124773635Y-114889973D01*
X124658616Y-114717835D01*
X124658615Y-114717833D01*
X124579389Y-114526564D01*
X124539000Y-114323516D01*
X124539000Y-114116484D01*
X124579389Y-113913436D01*
X124658615Y-113722167D01*
X124773635Y-113550027D01*
X124920027Y-113403635D01*
X125092165Y-113288616D01*
X125092167Y-113288615D01*
X125283436Y-113209389D01*
X125486484Y-113169000D01*
X125693516Y-113169000D01*
X125896564Y-113209389D01*
G37*
G36*
X120816564Y-113209389D02*
G01*
X121007833Y-113288615D01*
X121007835Y-113288616D01*
X121179973Y-113403635D01*
X121326365Y-113550027D01*
X121441385Y-113722167D01*
X121520611Y-113913436D01*
X121561000Y-114116484D01*
X121561000Y-114323516D01*
X121520611Y-114526564D01*
X121441385Y-114717833D01*
X121441384Y-114717835D01*
X121326365Y-114889973D01*
X121179973Y-115036365D01*
X121007835Y-115151384D01*
X121007834Y-115151385D01*
X121007833Y-115151385D01*
X120816564Y-115230611D01*
X120613516Y-115271000D01*
X120406484Y-115271000D01*
X120203436Y-115230611D01*
X120012167Y-115151385D01*
X120012166Y-115151385D01*
X120012165Y-115151384D01*
X119840027Y-115036365D01*
X119693635Y-114889973D01*
X119578616Y-114717835D01*
X119578615Y-114717833D01*
X119499389Y-114526564D01*
X119459000Y-114323516D01*
X119459000Y-114116484D01*
X119499389Y-113913436D01*
X119578615Y-113722167D01*
X119693635Y-113550027D01*
X119840027Y-113403635D01*
X120012165Y-113288616D01*
X120012167Y-113288615D01*
X120203436Y-113209389D01*
X120406484Y-113169000D01*
X120613516Y-113169000D01*
X120816564Y-113209389D01*
G37*
G36*
X115736564Y-113209389D02*
G01*
X115927833Y-113288615D01*
X115927835Y-113288616D01*
X116099973Y-113403635D01*
X116246365Y-113550027D01*
X116361385Y-113722167D01*
X116440611Y-113913436D01*
X116481000Y-114116484D01*
X116481000Y-114323516D01*
X116440611Y-114526564D01*
X116361385Y-114717833D01*
X116361384Y-114717835D01*
X116246365Y-114889973D01*
X116099973Y-115036365D01*
X115927835Y-115151384D01*
X115927834Y-115151385D01*
X115927833Y-115151385D01*
X115736564Y-115230611D01*
X115533516Y-115271000D01*
X115326484Y-115271000D01*
X115123436Y-115230611D01*
X114932167Y-115151385D01*
X114932166Y-115151385D01*
X114932165Y-115151384D01*
X114760027Y-115036365D01*
X114613635Y-114889973D01*
X114498616Y-114717835D01*
X114498615Y-114717833D01*
X114419389Y-114526564D01*
X114379000Y-114323516D01*
X114379000Y-114116484D01*
X114419389Y-113913436D01*
X114498615Y-113722167D01*
X114613635Y-113550027D01*
X114760027Y-113403635D01*
X114932165Y-113288616D01*
X114932167Y-113288615D01*
X115123436Y-113209389D01*
X115326484Y-113169000D01*
X115533516Y-113169000D01*
X115736564Y-113209389D01*
G37*
G36*
X113196564Y-113209389D02*
G01*
X113387833Y-113288615D01*
X113387835Y-113288616D01*
X113559973Y-113403635D01*
X113706365Y-113550027D01*
X113821385Y-113722167D01*
X113900611Y-113913436D01*
X113941000Y-114116484D01*
X113941000Y-114323516D01*
X113900611Y-114526564D01*
X113821385Y-114717833D01*
X113821384Y-114717835D01*
X113706365Y-114889973D01*
X113559973Y-115036365D01*
X113387835Y-115151384D01*
X113387834Y-115151385D01*
X113387833Y-115151385D01*
X113196564Y-115230611D01*
X112993516Y-115271000D01*
X112786484Y-115271000D01*
X112583436Y-115230611D01*
X112392167Y-115151385D01*
X112392166Y-115151385D01*
X112392165Y-115151384D01*
X112220027Y-115036365D01*
X112073635Y-114889973D01*
X111958616Y-114717835D01*
X111958615Y-114717833D01*
X111879389Y-114526564D01*
X111839000Y-114323516D01*
X111839000Y-114116484D01*
X111879389Y-113913436D01*
X111958615Y-113722167D01*
X112073635Y-113550027D01*
X112220027Y-113403635D01*
X112392165Y-113288616D01*
X112392167Y-113288615D01*
X112583436Y-113209389D01*
X112786484Y-113169000D01*
X112993516Y-113169000D01*
X113196564Y-113209389D01*
G37*
G36*
X110656564Y-113209389D02*
G01*
X110847833Y-113288615D01*
X110847835Y-113288616D01*
X111019973Y-113403635D01*
X111166365Y-113550027D01*
X111281385Y-113722167D01*
X111360611Y-113913436D01*
X111401000Y-114116484D01*
X111401000Y-114323516D01*
X111360611Y-114526564D01*
X111281385Y-114717833D01*
X111281384Y-114717835D01*
X111166365Y-114889973D01*
X111019973Y-115036365D01*
X110847835Y-115151384D01*
X110847834Y-115151385D01*
X110847833Y-115151385D01*
X110656564Y-115230611D01*
X110453516Y-115271000D01*
X110246484Y-115271000D01*
X110043436Y-115230611D01*
X109852167Y-115151385D01*
X109852166Y-115151385D01*
X109852165Y-115151384D01*
X109680027Y-115036365D01*
X109533635Y-114889973D01*
X109418616Y-114717835D01*
X109418615Y-114717833D01*
X109339389Y-114526564D01*
X109299000Y-114323516D01*
X109299000Y-114116484D01*
X109339389Y-113913436D01*
X109418615Y-113722167D01*
X109533635Y-113550027D01*
X109680027Y-113403635D01*
X109852165Y-113288616D01*
X109852167Y-113288615D01*
X110043436Y-113209389D01*
X110246484Y-113169000D01*
X110453516Y-113169000D01*
X110656564Y-113209389D01*
G37*
G36*
X108116564Y-113209389D02*
G01*
X108307833Y-113288615D01*
X108307835Y-113288616D01*
X108479973Y-113403635D01*
X108626365Y-113550027D01*
X108741385Y-113722167D01*
X108820611Y-113913436D01*
X108861000Y-114116484D01*
X108861000Y-114323516D01*
X108820611Y-114526564D01*
X108741385Y-114717833D01*
X108741384Y-114717835D01*
X108626365Y-114889973D01*
X108479973Y-115036365D01*
X108307835Y-115151384D01*
X108307834Y-115151385D01*
X108307833Y-115151385D01*
X108116564Y-115230611D01*
X107913516Y-115271000D01*
X107706484Y-115271000D01*
X107503436Y-115230611D01*
X107312167Y-115151385D01*
X107312166Y-115151385D01*
X107312165Y-115151384D01*
X107140027Y-115036365D01*
X106993635Y-114889973D01*
X106878616Y-114717835D01*
X106878615Y-114717833D01*
X106799389Y-114526564D01*
X106759000Y-114323516D01*
X106759000Y-114116484D01*
X106799389Y-113913436D01*
X106878615Y-113722167D01*
X106993635Y-113550027D01*
X107140027Y-113403635D01*
X107312165Y-113288616D01*
X107312167Y-113288615D01*
X107503436Y-113209389D01*
X107706484Y-113169000D01*
X107913516Y-113169000D01*
X108116564Y-113209389D01*
G37*
G36*
X123356564Y-113209389D02*
G01*
X123547833Y-113288615D01*
X123547835Y-113288616D01*
X123719973Y-113403635D01*
X123866365Y-113550027D01*
X123981385Y-113722167D01*
X124060611Y-113913436D01*
X124101000Y-114116484D01*
X124101000Y-114323516D01*
X124060611Y-114526564D01*
X123981385Y-114717833D01*
X123981384Y-114717835D01*
X123866365Y-114889973D01*
X123719973Y-115036365D01*
X123547835Y-115151384D01*
X123547834Y-115151385D01*
X123547833Y-115151385D01*
X123356564Y-115230611D01*
X123153516Y-115271000D01*
X122946484Y-115271000D01*
X122743436Y-115230611D01*
X122552167Y-115151385D01*
X122552166Y-115151385D01*
X122552165Y-115151384D01*
X122380027Y-115036365D01*
X122233635Y-114889973D01*
X122118616Y-114717835D01*
X122118615Y-114717833D01*
X122039389Y-114526564D01*
X121999000Y-114323516D01*
X121999000Y-114116484D01*
X122039389Y-113913436D01*
X122118615Y-113722167D01*
X122233635Y-113550027D01*
X122380027Y-113403635D01*
X122552165Y-113288616D01*
X122552167Y-113288615D01*
X122743436Y-113209389D01*
X122946484Y-113169000D01*
X123153516Y-113169000D01*
X123356564Y-113209389D01*
G37*
G36*
X115736564Y-110669389D02*
G01*
X115927833Y-110748615D01*
X115927835Y-110748616D01*
X116099973Y-110863635D01*
X116246365Y-111010027D01*
X116361385Y-111182167D01*
X116440611Y-111373436D01*
X116481000Y-111576484D01*
X116481000Y-111783516D01*
X116440611Y-111986564D01*
X116361385Y-112177833D01*
X116361384Y-112177835D01*
X116246365Y-112349973D01*
X116099973Y-112496365D01*
X115927835Y-112611384D01*
X115927834Y-112611385D01*
X115927833Y-112611385D01*
X115736564Y-112690611D01*
X115533516Y-112731000D01*
X115326484Y-112731000D01*
X115123436Y-112690611D01*
X114932167Y-112611385D01*
X114932166Y-112611385D01*
X114932165Y-112611384D01*
X114760027Y-112496365D01*
X114613635Y-112349973D01*
X114498616Y-112177835D01*
X114498615Y-112177833D01*
X114419389Y-111986564D01*
X114379000Y-111783516D01*
X114379000Y-111576484D01*
X114419389Y-111373436D01*
X114498615Y-111182167D01*
X114613635Y-111010027D01*
X114760027Y-110863635D01*
X114932165Y-110748616D01*
X114932167Y-110748615D01*
X115123436Y-110669389D01*
X115326484Y-110629000D01*
X115533516Y-110629000D01*
X115736564Y-110669389D01*
G37*
G36*
X108116564Y-110669389D02*
G01*
X108307833Y-110748615D01*
X108307835Y-110748616D01*
X108479973Y-110863635D01*
X108626365Y-111010027D01*
X108741385Y-111182167D01*
X108820611Y-111373436D01*
X108861000Y-111576484D01*
X108861000Y-111783516D01*
X108820611Y-111986564D01*
X108741385Y-112177833D01*
X108741384Y-112177835D01*
X108626365Y-112349973D01*
X108479973Y-112496365D01*
X108307835Y-112611384D01*
X108307834Y-112611385D01*
X108307833Y-112611385D01*
X108116564Y-112690611D01*
X107913516Y-112731000D01*
X107706484Y-112731000D01*
X107503436Y-112690611D01*
X107312167Y-112611385D01*
X107312166Y-112611385D01*
X107312165Y-112611384D01*
X107140027Y-112496365D01*
X106993635Y-112349973D01*
X106878616Y-112177835D01*
X106878615Y-112177833D01*
X106799389Y-111986564D01*
X106759000Y-111783516D01*
X106759000Y-111576484D01*
X106799389Y-111373436D01*
X106878615Y-111182167D01*
X106993635Y-111010027D01*
X107140027Y-110863635D01*
X107312165Y-110748616D01*
X107312167Y-110748615D01*
X107503436Y-110669389D01*
X107706484Y-110629000D01*
X107913516Y-110629000D01*
X108116564Y-110669389D01*
G37*
G36*
X110656564Y-110669389D02*
G01*
X110847833Y-110748615D01*
X110847835Y-110748616D01*
X111019973Y-110863635D01*
X111166365Y-111010027D01*
X111281385Y-111182167D01*
X111360611Y-111373436D01*
X111401000Y-111576484D01*
X111401000Y-111783516D01*
X111360611Y-111986564D01*
X111281385Y-112177833D01*
X111281384Y-112177835D01*
X111166365Y-112349973D01*
X111019973Y-112496365D01*
X110847835Y-112611384D01*
X110847834Y-112611385D01*
X110847833Y-112611385D01*
X110656564Y-112690611D01*
X110453516Y-112731000D01*
X110246484Y-112731000D01*
X110043436Y-112690611D01*
X109852167Y-112611385D01*
X109852166Y-112611385D01*
X109852165Y-112611384D01*
X109680027Y-112496365D01*
X109533635Y-112349973D01*
X109418616Y-112177835D01*
X109418615Y-112177833D01*
X109339389Y-111986564D01*
X109299000Y-111783516D01*
X109299000Y-111576484D01*
X109339389Y-111373436D01*
X109418615Y-111182167D01*
X109533635Y-111010027D01*
X109680027Y-110863635D01*
X109852165Y-110748616D01*
X109852167Y-110748615D01*
X110043436Y-110669389D01*
X110246484Y-110629000D01*
X110453516Y-110629000D01*
X110656564Y-110669389D01*
G37*
G36*
X113196564Y-110669389D02*
G01*
X113387833Y-110748615D01*
X113387835Y-110748616D01*
X113559973Y-110863635D01*
X113706365Y-111010027D01*
X113821385Y-111182167D01*
X113900611Y-111373436D01*
X113941000Y-111576484D01*
X113941000Y-111783516D01*
X113900611Y-111986564D01*
X113821385Y-112177833D01*
X113821384Y-112177835D01*
X113706365Y-112349973D01*
X113559973Y-112496365D01*
X113387835Y-112611384D01*
X113387834Y-112611385D01*
X113387833Y-112611385D01*
X113196564Y-112690611D01*
X112993516Y-112731000D01*
X112786484Y-112731000D01*
X112583436Y-112690611D01*
X112392167Y-112611385D01*
X112392166Y-112611385D01*
X112392165Y-112611384D01*
X112220027Y-112496365D01*
X112073635Y-112349973D01*
X111958616Y-112177835D01*
X111958615Y-112177833D01*
X111879389Y-111986564D01*
X111839000Y-111783516D01*
X111839000Y-111576484D01*
X111879389Y-111373436D01*
X111958615Y-111182167D01*
X112073635Y-111010027D01*
X112220027Y-110863635D01*
X112392165Y-110748616D01*
X112392167Y-110748615D01*
X112583436Y-110669389D01*
X112786484Y-110629000D01*
X112993516Y-110629000D01*
X113196564Y-110669389D01*
G37*
G36*
X118276564Y-110669389D02*
G01*
X118467833Y-110748615D01*
X118467835Y-110748616D01*
X118639973Y-110863635D01*
X118786365Y-111010027D01*
X118901385Y-111182167D01*
X118980611Y-111373436D01*
X119021000Y-111576484D01*
X119021000Y-111783516D01*
X118980611Y-111986564D01*
X118901385Y-112177833D01*
X118901384Y-112177835D01*
X118786365Y-112349973D01*
X118639973Y-112496365D01*
X118467835Y-112611384D01*
X118467834Y-112611385D01*
X118467833Y-112611385D01*
X118276564Y-112690611D01*
X118073516Y-112731000D01*
X117866484Y-112731000D01*
X117663436Y-112690611D01*
X117472167Y-112611385D01*
X117472166Y-112611385D01*
X117472165Y-112611384D01*
X117300027Y-112496365D01*
X117153635Y-112349973D01*
X117038616Y-112177835D01*
X117038615Y-112177833D01*
X116959389Y-111986564D01*
X116919000Y-111783516D01*
X116919000Y-111576484D01*
X116959389Y-111373436D01*
X117038615Y-111182167D01*
X117153635Y-111010027D01*
X117300027Y-110863635D01*
X117472165Y-110748616D01*
X117472167Y-110748615D01*
X117663436Y-110669389D01*
X117866484Y-110629000D01*
X118073516Y-110629000D01*
X118276564Y-110669389D01*
G37*
G36*
X123356564Y-110669389D02*
G01*
X123547833Y-110748615D01*
X123547835Y-110748616D01*
X123719973Y-110863635D01*
X123866365Y-111010027D01*
X123981385Y-111182167D01*
X124060611Y-111373436D01*
X124101000Y-111576484D01*
X124101000Y-111783516D01*
X124060611Y-111986564D01*
X123981385Y-112177833D01*
X123981384Y-112177835D01*
X123866365Y-112349973D01*
X123719973Y-112496365D01*
X123547835Y-112611384D01*
X123547834Y-112611385D01*
X123547833Y-112611385D01*
X123356564Y-112690611D01*
X123153516Y-112731000D01*
X122946484Y-112731000D01*
X122743436Y-112690611D01*
X122552167Y-112611385D01*
X122552166Y-112611385D01*
X122552165Y-112611384D01*
X122380027Y-112496365D01*
X122233635Y-112349973D01*
X122118616Y-112177835D01*
X122118615Y-112177833D01*
X122039389Y-111986564D01*
X121999000Y-111783516D01*
X121999000Y-111576484D01*
X122039389Y-111373436D01*
X122118615Y-111182167D01*
X122233635Y-111010027D01*
X122380027Y-110863635D01*
X122552165Y-110748616D01*
X122552167Y-110748615D01*
X122743436Y-110669389D01*
X122946484Y-110629000D01*
X123153516Y-110629000D01*
X123356564Y-110669389D01*
G37*
G36*
X125896564Y-110669389D02*
G01*
X126087833Y-110748615D01*
X126087835Y-110748616D01*
X126259973Y-110863635D01*
X126406365Y-111010027D01*
X126521385Y-111182167D01*
X126600611Y-111373436D01*
X126641000Y-111576484D01*
X126641000Y-111783516D01*
X126600611Y-111986564D01*
X126521385Y-112177833D01*
X126521384Y-112177835D01*
X126406365Y-112349973D01*
X126259973Y-112496365D01*
X126087835Y-112611384D01*
X126087834Y-112611385D01*
X126087833Y-112611385D01*
X125896564Y-112690611D01*
X125693516Y-112731000D01*
X125486484Y-112731000D01*
X125283436Y-112690611D01*
X125092167Y-112611385D01*
X125092166Y-112611385D01*
X125092165Y-112611384D01*
X124920027Y-112496365D01*
X124773635Y-112349973D01*
X124658616Y-112177835D01*
X124658615Y-112177833D01*
X124579389Y-111986564D01*
X124539000Y-111783516D01*
X124539000Y-111576484D01*
X124579389Y-111373436D01*
X124658615Y-111182167D01*
X124773635Y-111010027D01*
X124920027Y-110863635D01*
X125092165Y-110748616D01*
X125092167Y-110748615D01*
X125283436Y-110669389D01*
X125486484Y-110629000D01*
X125693516Y-110629000D01*
X125896564Y-110669389D01*
G37*
G36*
X128436564Y-110669389D02*
G01*
X128627833Y-110748615D01*
X128627835Y-110748616D01*
X128799973Y-110863635D01*
X128946365Y-111010027D01*
X129061385Y-111182167D01*
X129140611Y-111373436D01*
X129181000Y-111576484D01*
X129181000Y-111783516D01*
X129140611Y-111986564D01*
X129061385Y-112177833D01*
X129061384Y-112177835D01*
X128946365Y-112349973D01*
X128799973Y-112496365D01*
X128627835Y-112611384D01*
X128627834Y-112611385D01*
X128627833Y-112611385D01*
X128436564Y-112690611D01*
X128233516Y-112731000D01*
X128026484Y-112731000D01*
X127823436Y-112690611D01*
X127632167Y-112611385D01*
X127632166Y-112611385D01*
X127632165Y-112611384D01*
X127460027Y-112496365D01*
X127313635Y-112349973D01*
X127198616Y-112177835D01*
X127198615Y-112177833D01*
X127119389Y-111986564D01*
X127079000Y-111783516D01*
X127079000Y-111576484D01*
X127119389Y-111373436D01*
X127198615Y-111182167D01*
X127313635Y-111010027D01*
X127460027Y-110863635D01*
X127632165Y-110748616D01*
X127632167Y-110748615D01*
X127823436Y-110669389D01*
X128026484Y-110629000D01*
X128233516Y-110629000D01*
X128436564Y-110669389D01*
G37*
G36*
X130976564Y-110669389D02*
G01*
X131167833Y-110748615D01*
X131167835Y-110748616D01*
X131339973Y-110863635D01*
X131486365Y-111010027D01*
X131601385Y-111182167D01*
X131680611Y-111373436D01*
X131721000Y-111576484D01*
X131721000Y-111783516D01*
X131680611Y-111986564D01*
X131601385Y-112177833D01*
X131601384Y-112177835D01*
X131486365Y-112349973D01*
X131339973Y-112496365D01*
X131167835Y-112611384D01*
X131167834Y-112611385D01*
X131167833Y-112611385D01*
X130976564Y-112690611D01*
X130773516Y-112731000D01*
X130566484Y-112731000D01*
X130363436Y-112690611D01*
X130172167Y-112611385D01*
X130172166Y-112611385D01*
X130172165Y-112611384D01*
X130000027Y-112496365D01*
X129853635Y-112349973D01*
X129738616Y-112177835D01*
X129738615Y-112177833D01*
X129659389Y-111986564D01*
X129619000Y-111783516D01*
X129619000Y-111576484D01*
X129659389Y-111373436D01*
X129738615Y-111182167D01*
X129853635Y-111010027D01*
X130000027Y-110863635D01*
X130172165Y-110748616D01*
X130172167Y-110748615D01*
X130363436Y-110669389D01*
X130566484Y-110629000D01*
X130773516Y-110629000D01*
X130976564Y-110669389D01*
G37*
G36*
X120816564Y-110669389D02*
G01*
X121007833Y-110748615D01*
X121007835Y-110748616D01*
X121179973Y-110863635D01*
X121326365Y-111010027D01*
X121441385Y-111182167D01*
X121520611Y-111373436D01*
X121561000Y-111576484D01*
X121561000Y-111783516D01*
X121520611Y-111986564D01*
X121441385Y-112177833D01*
X121441384Y-112177835D01*
X121326365Y-112349973D01*
X121179973Y-112496365D01*
X121007835Y-112611384D01*
X121007834Y-112611385D01*
X121007833Y-112611385D01*
X120816564Y-112690611D01*
X120613516Y-112731000D01*
X120406484Y-112731000D01*
X120203436Y-112690611D01*
X120012167Y-112611385D01*
X120012166Y-112611385D01*
X120012165Y-112611384D01*
X119840027Y-112496365D01*
X119693635Y-112349973D01*
X119578616Y-112177835D01*
X119578615Y-112177833D01*
X119499389Y-111986564D01*
X119459000Y-111783516D01*
X119459000Y-111576484D01*
X119499389Y-111373436D01*
X119578615Y-111182167D01*
X119693635Y-111010027D01*
X119840027Y-110863635D01*
X120012165Y-110748616D01*
X120012167Y-110748615D01*
X120203436Y-110669389D01*
X120406484Y-110629000D01*
X120613516Y-110629000D01*
X120816564Y-110669389D01*
G37*
G36*
X102086564Y-82149389D02*
G01*
X102277833Y-82228615D01*
X102277835Y-82228616D01*
X102449973Y-82343635D01*
X102596365Y-82490027D01*
X102711385Y-82662167D01*
X102790611Y-82853436D01*
X102831000Y-83056484D01*
X102831000Y-83263516D01*
X102790611Y-83466564D01*
X102711385Y-83657833D01*
X102711384Y-83657835D01*
X102596365Y-83829973D01*
X102449973Y-83976365D01*
X102277835Y-84091384D01*
X102277834Y-84091385D01*
X102277833Y-84091385D01*
X102086564Y-84170611D01*
X101883516Y-84211000D01*
X101676484Y-84211000D01*
X101473436Y-84170611D01*
X101282167Y-84091385D01*
X101282166Y-84091385D01*
X101282165Y-84091384D01*
X101110027Y-83976365D01*
X100963635Y-83829973D01*
X100848616Y-83657835D01*
X100848615Y-83657833D01*
X100769389Y-83466564D01*
X100729000Y-83263516D01*
X100729000Y-83056484D01*
X100769389Y-82853436D01*
X100848615Y-82662167D01*
X100963635Y-82490027D01*
X101110027Y-82343635D01*
X101282165Y-82228616D01*
X101282167Y-82228615D01*
X101473436Y-82149389D01*
X101676484Y-82109000D01*
X101883516Y-82109000D01*
X102086564Y-82149389D01*
G37*
G36*
X104626564Y-82149389D02*
G01*
X104817833Y-82228615D01*
X104817835Y-82228616D01*
X104989973Y-82343635D01*
X105136365Y-82490027D01*
X105251385Y-82662167D01*
X105330611Y-82853436D01*
X105371000Y-83056484D01*
X105371000Y-83263516D01*
X105330611Y-83466564D01*
X105251385Y-83657833D01*
X105251384Y-83657835D01*
X105136365Y-83829973D01*
X104989973Y-83976365D01*
X104817835Y-84091384D01*
X104817834Y-84091385D01*
X104817833Y-84091385D01*
X104626564Y-84170611D01*
X104423516Y-84211000D01*
X104216484Y-84211000D01*
X104013436Y-84170611D01*
X103822167Y-84091385D01*
X103822166Y-84091385D01*
X103822165Y-84091384D01*
X103650027Y-83976365D01*
X103503635Y-83829973D01*
X103388616Y-83657835D01*
X103388615Y-83657833D01*
X103309389Y-83466564D01*
X103269000Y-83263516D01*
X103269000Y-83056484D01*
X103309389Y-82853436D01*
X103388615Y-82662167D01*
X103503635Y-82490027D01*
X103650027Y-82343635D01*
X103822165Y-82228616D01*
X103822167Y-82228615D01*
X104013436Y-82149389D01*
X104216484Y-82109000D01*
X104423516Y-82109000D01*
X104626564Y-82149389D01*
G37*
G36*
X107166564Y-82149389D02*
G01*
X107357833Y-82228615D01*
X107357835Y-82228616D01*
X107529973Y-82343635D01*
X107676365Y-82490027D01*
X107791385Y-82662167D01*
X107870611Y-82853436D01*
X107911000Y-83056484D01*
X107911000Y-83263516D01*
X107870611Y-83466564D01*
X107791385Y-83657833D01*
X107791384Y-83657835D01*
X107676365Y-83829973D01*
X107529973Y-83976365D01*
X107357835Y-84091384D01*
X107357834Y-84091385D01*
X107357833Y-84091385D01*
X107166564Y-84170611D01*
X106963516Y-84211000D01*
X106756484Y-84211000D01*
X106553436Y-84170611D01*
X106362167Y-84091385D01*
X106362166Y-84091385D01*
X106362165Y-84091384D01*
X106190027Y-83976365D01*
X106043635Y-83829973D01*
X105928616Y-83657835D01*
X105928615Y-83657833D01*
X105849389Y-83466564D01*
X105809000Y-83263516D01*
X105809000Y-83056484D01*
X105849389Y-82853436D01*
X105928615Y-82662167D01*
X106043635Y-82490027D01*
X106190027Y-82343635D01*
X106362165Y-82228616D01*
X106362167Y-82228615D01*
X106553436Y-82149389D01*
X106756484Y-82109000D01*
X106963516Y-82109000D01*
X107166564Y-82149389D01*
G37*
G36*
X109706564Y-82149389D02*
G01*
X109897833Y-82228615D01*
X109897835Y-82228616D01*
X110069973Y-82343635D01*
X110216365Y-82490027D01*
X110331385Y-82662167D01*
X110410611Y-82853436D01*
X110451000Y-83056484D01*
X110451000Y-83263516D01*
X110410611Y-83466564D01*
X110331385Y-83657833D01*
X110331384Y-83657835D01*
X110216365Y-83829973D01*
X110069973Y-83976365D01*
X109897835Y-84091384D01*
X109897834Y-84091385D01*
X109897833Y-84091385D01*
X109706564Y-84170611D01*
X109503516Y-84211000D01*
X109296484Y-84211000D01*
X109093436Y-84170611D01*
X108902167Y-84091385D01*
X108902166Y-84091385D01*
X108902165Y-84091384D01*
X108730027Y-83976365D01*
X108583635Y-83829973D01*
X108468616Y-83657835D01*
X108468615Y-83657833D01*
X108389389Y-83466564D01*
X108349000Y-83263516D01*
X108349000Y-83056484D01*
X108389389Y-82853436D01*
X108468615Y-82662167D01*
X108583635Y-82490027D01*
X108730027Y-82343635D01*
X108902165Y-82228616D01*
X108902167Y-82228615D01*
X109093436Y-82149389D01*
X109296484Y-82109000D01*
X109503516Y-82109000D01*
X109706564Y-82149389D01*
G37*
G36*
X112246564Y-82149389D02*
G01*
X112437833Y-82228615D01*
X112437835Y-82228616D01*
X112609973Y-82343635D01*
X112756365Y-82490027D01*
X112871385Y-82662167D01*
X112950611Y-82853436D01*
X112991000Y-83056484D01*
X112991000Y-83263516D01*
X112950611Y-83466564D01*
X112871385Y-83657833D01*
X112871384Y-83657835D01*
X112756365Y-83829973D01*
X112609973Y-83976365D01*
X112437835Y-84091384D01*
X112437834Y-84091385D01*
X112437833Y-84091385D01*
X112246564Y-84170611D01*
X112043516Y-84211000D01*
X111836484Y-84211000D01*
X111633436Y-84170611D01*
X111442167Y-84091385D01*
X111442166Y-84091385D01*
X111442165Y-84091384D01*
X111270027Y-83976365D01*
X111123635Y-83829973D01*
X111008616Y-83657835D01*
X111008615Y-83657833D01*
X110929389Y-83466564D01*
X110889000Y-83263516D01*
X110889000Y-83056484D01*
X110929389Y-82853436D01*
X111008615Y-82662167D01*
X111123635Y-82490027D01*
X111270027Y-82343635D01*
X111442165Y-82228616D01*
X111442167Y-82228615D01*
X111633436Y-82149389D01*
X111836484Y-82109000D01*
X112043516Y-82109000D01*
X112246564Y-82149389D01*
G37*
G36*
X114786564Y-82149389D02*
G01*
X114977833Y-82228615D01*
X114977835Y-82228616D01*
X115149973Y-82343635D01*
X115296365Y-82490027D01*
X115411385Y-82662167D01*
X115490611Y-82853436D01*
X115531000Y-83056484D01*
X115531000Y-83263516D01*
X115490611Y-83466564D01*
X115411385Y-83657833D01*
X115411384Y-83657835D01*
X115296365Y-83829973D01*
X115149973Y-83976365D01*
X114977835Y-84091384D01*
X114977834Y-84091385D01*
X114977833Y-84091385D01*
X114786564Y-84170611D01*
X114583516Y-84211000D01*
X114376484Y-84211000D01*
X114173436Y-84170611D01*
X113982167Y-84091385D01*
X113982166Y-84091385D01*
X113982165Y-84091384D01*
X113810027Y-83976365D01*
X113663635Y-83829973D01*
X113548616Y-83657835D01*
X113548615Y-83657833D01*
X113469389Y-83466564D01*
X113429000Y-83263516D01*
X113429000Y-83056484D01*
X113469389Y-82853436D01*
X113548615Y-82662167D01*
X113663635Y-82490027D01*
X113810027Y-82343635D01*
X113982165Y-82228616D01*
X113982167Y-82228615D01*
X114173436Y-82149389D01*
X114376484Y-82109000D01*
X114583516Y-82109000D01*
X114786564Y-82149389D01*
G37*
G36*
X107166564Y-66909389D02*
G01*
X107357833Y-66988615D01*
X107357835Y-66988616D01*
X107420683Y-67030610D01*
X107529973Y-67103635D01*
X107676365Y-67250027D01*
X107791385Y-67422167D01*
X107870611Y-67613436D01*
X107911000Y-67816484D01*
X107911000Y-68023516D01*
X107870611Y-68226564D01*
X107791385Y-68417833D01*
X107791384Y-68417835D01*
X107676365Y-68589973D01*
X107529973Y-68736365D01*
X107357835Y-68851384D01*
X107357834Y-68851385D01*
X107357833Y-68851385D01*
X107166564Y-68930611D01*
X106963516Y-68971000D01*
X106756484Y-68971000D01*
X106553436Y-68930611D01*
X106362167Y-68851385D01*
X106362166Y-68851385D01*
X106362165Y-68851384D01*
X106190027Y-68736365D01*
X106043635Y-68589973D01*
X105928616Y-68417835D01*
X105928615Y-68417833D01*
X105849389Y-68226564D01*
X105809000Y-68023516D01*
X105809000Y-67816484D01*
X105849389Y-67613436D01*
X105928615Y-67422167D01*
X106043635Y-67250027D01*
X106190027Y-67103635D01*
X106299317Y-67030610D01*
X106362165Y-66988616D01*
X106362167Y-66988615D01*
X106553436Y-66909389D01*
X106756484Y-66869000D01*
X106963516Y-66869000D01*
X107166564Y-66909389D01*
G37*
G36*
X104626564Y-66909389D02*
G01*
X104817833Y-66988615D01*
X104817835Y-66988616D01*
X104880683Y-67030610D01*
X104989973Y-67103635D01*
X105136365Y-67250027D01*
X105251385Y-67422167D01*
X105330611Y-67613436D01*
X105371000Y-67816484D01*
X105371000Y-68023516D01*
X105330611Y-68226564D01*
X105251385Y-68417833D01*
X105251384Y-68417835D01*
X105136365Y-68589973D01*
X104989973Y-68736365D01*
X104817835Y-68851384D01*
X104817834Y-68851385D01*
X104817833Y-68851385D01*
X104626564Y-68930611D01*
X104423516Y-68971000D01*
X104216484Y-68971000D01*
X104013436Y-68930611D01*
X103822167Y-68851385D01*
X103822166Y-68851385D01*
X103822165Y-68851384D01*
X103650027Y-68736365D01*
X103503635Y-68589973D01*
X103388616Y-68417835D01*
X103388615Y-68417833D01*
X103309389Y-68226564D01*
X103269000Y-68023516D01*
X103269000Y-67816484D01*
X103309389Y-67613436D01*
X103388615Y-67422167D01*
X103503635Y-67250027D01*
X103650027Y-67103635D01*
X103759317Y-67030610D01*
X103822165Y-66988616D01*
X103822167Y-66988615D01*
X104013436Y-66909389D01*
X104216484Y-66869000D01*
X104423516Y-66869000D01*
X104626564Y-66909389D01*
G37*
G36*
X109706564Y-66909389D02*
G01*
X109897833Y-66988615D01*
X109897835Y-66988616D01*
X109960683Y-67030610D01*
X110069973Y-67103635D01*
X110216365Y-67250027D01*
X110331385Y-67422167D01*
X110410611Y-67613436D01*
X110451000Y-67816484D01*
X110451000Y-68023516D01*
X110410611Y-68226564D01*
X110331385Y-68417833D01*
X110331384Y-68417835D01*
X110216365Y-68589973D01*
X110069973Y-68736365D01*
X109897835Y-68851384D01*
X109897834Y-68851385D01*
X109897833Y-68851385D01*
X109706564Y-68930611D01*
X109503516Y-68971000D01*
X109296484Y-68971000D01*
X109093436Y-68930611D01*
X108902167Y-68851385D01*
X108902166Y-68851385D01*
X108902165Y-68851384D01*
X108730027Y-68736365D01*
X108583635Y-68589973D01*
X108468616Y-68417835D01*
X108468615Y-68417833D01*
X108389389Y-68226564D01*
X108349000Y-68023516D01*
X108349000Y-67816484D01*
X108389389Y-67613436D01*
X108468615Y-67422167D01*
X108583635Y-67250027D01*
X108730027Y-67103635D01*
X108839317Y-67030610D01*
X108902165Y-66988616D01*
X108902167Y-66988615D01*
X109093436Y-66909389D01*
X109296484Y-66869000D01*
X109503516Y-66869000D01*
X109706564Y-66909389D01*
G37*
G36*
X112246564Y-66909389D02*
G01*
X112437833Y-66988615D01*
X112437835Y-66988616D01*
X112500683Y-67030610D01*
X112609973Y-67103635D01*
X112756365Y-67250027D01*
X112871385Y-67422167D01*
X112950611Y-67613436D01*
X112991000Y-67816484D01*
X112991000Y-68023516D01*
X112950611Y-68226564D01*
X112871385Y-68417833D01*
X112871384Y-68417835D01*
X112756365Y-68589973D01*
X112609973Y-68736365D01*
X112437835Y-68851384D01*
X112437834Y-68851385D01*
X112437833Y-68851385D01*
X112246564Y-68930611D01*
X112043516Y-68971000D01*
X111836484Y-68971000D01*
X111633436Y-68930611D01*
X111442167Y-68851385D01*
X111442166Y-68851385D01*
X111442165Y-68851384D01*
X111270027Y-68736365D01*
X111123635Y-68589973D01*
X111008616Y-68417835D01*
X111008615Y-68417833D01*
X110929389Y-68226564D01*
X110889000Y-68023516D01*
X110889000Y-67816484D01*
X110929389Y-67613436D01*
X111008615Y-67422167D01*
X111123635Y-67250027D01*
X111270027Y-67103635D01*
X111379317Y-67030610D01*
X111442165Y-66988616D01*
X111442167Y-66988615D01*
X111633436Y-66909389D01*
X111836484Y-66869000D01*
X112043516Y-66869000D01*
X112246564Y-66909389D01*
G37*
G36*
X114786564Y-66909389D02*
G01*
X114977833Y-66988615D01*
X114977835Y-66988616D01*
X115040683Y-67030610D01*
X115149973Y-67103635D01*
X115296365Y-67250027D01*
X115411385Y-67422167D01*
X115490611Y-67613436D01*
X115531000Y-67816484D01*
X115531000Y-68023516D01*
X115490611Y-68226564D01*
X115411385Y-68417833D01*
X115411384Y-68417835D01*
X115296365Y-68589973D01*
X115149973Y-68736365D01*
X114977835Y-68851384D01*
X114977834Y-68851385D01*
X114977833Y-68851385D01*
X114786564Y-68930611D01*
X114583516Y-68971000D01*
X114376484Y-68971000D01*
X114173436Y-68930611D01*
X113982167Y-68851385D01*
X113982166Y-68851385D01*
X113982165Y-68851384D01*
X113810027Y-68736365D01*
X113663635Y-68589973D01*
X113548616Y-68417835D01*
X113548615Y-68417833D01*
X113469389Y-68226564D01*
X113429000Y-68023516D01*
X113429000Y-67816484D01*
X113469389Y-67613436D01*
X113548615Y-67422167D01*
X113663635Y-67250027D01*
X113810027Y-67103635D01*
X113919317Y-67030610D01*
X113982165Y-66988616D01*
X113982167Y-66988615D01*
X114173436Y-66909389D01*
X114376484Y-66869000D01*
X114583516Y-66869000D01*
X114786564Y-66909389D01*
G37*
G36*
X102086564Y-66909389D02*
G01*
X102277833Y-66988615D01*
X102277835Y-66988616D01*
X102340683Y-67030610D01*
X102449973Y-67103635D01*
X102596365Y-67250027D01*
X102711385Y-67422167D01*
X102790611Y-67613436D01*
X102831000Y-67816484D01*
X102831000Y-68023516D01*
X102790611Y-68226564D01*
X102711385Y-68417833D01*
X102711384Y-68417835D01*
X102596365Y-68589973D01*
X102449973Y-68736365D01*
X102277835Y-68851384D01*
X102277834Y-68851385D01*
X102277833Y-68851385D01*
X102086564Y-68930611D01*
X101883516Y-68971000D01*
X101676484Y-68971000D01*
X101473436Y-68930611D01*
X101282167Y-68851385D01*
X101282166Y-68851385D01*
X101282165Y-68851384D01*
X101110027Y-68736365D01*
X100963635Y-68589973D01*
X100848616Y-68417835D01*
X100848615Y-68417833D01*
X100769389Y-68226564D01*
X100729000Y-68023516D01*
X100729000Y-67816484D01*
X100769389Y-67613436D01*
X100848615Y-67422167D01*
X100963635Y-67250027D01*
X101110027Y-67103635D01*
X101219317Y-67030610D01*
X101282165Y-66988616D01*
X101282167Y-66988615D01*
X101473436Y-66909389D01*
X101676484Y-66869000D01*
X101883516Y-66869000D01*
X102086564Y-66909389D01*
G37*
G36*
X161136564Y-65009389D02*
G01*
X161327833Y-65088615D01*
X161327835Y-65088616D01*
X161499973Y-65203635D01*
X161646365Y-65350027D01*
X161761385Y-65522167D01*
X161840611Y-65713436D01*
X161881000Y-65916484D01*
X161881000Y-66123516D01*
X161840611Y-66326564D01*
X161761385Y-66517833D01*
X161761384Y-66517835D01*
X161646365Y-66689973D01*
X161499973Y-66836365D01*
X161327835Y-66951384D01*
X161327834Y-66951385D01*
X161327833Y-66951385D01*
X161136564Y-67030611D01*
X160933516Y-67071000D01*
X160726484Y-67071000D01*
X160523436Y-67030611D01*
X160332167Y-66951385D01*
X160332166Y-66951385D01*
X160332165Y-66951384D01*
X160160027Y-66836365D01*
X160013635Y-66689973D01*
X159898616Y-66517835D01*
X159898615Y-66517833D01*
X159819389Y-66326564D01*
X159779000Y-66123516D01*
X159779000Y-65916484D01*
X159819389Y-65713436D01*
X159898615Y-65522167D01*
X160013635Y-65350027D01*
X160160027Y-65203635D01*
X160332165Y-65088616D01*
X160332167Y-65088615D01*
X160523436Y-65009389D01*
X160726484Y-64969000D01*
X160933516Y-64969000D01*
X161136564Y-65009389D01*
G37*
G36*
X168756564Y-65009389D02*
G01*
X168947833Y-65088615D01*
X168947835Y-65088616D01*
X169119973Y-65203635D01*
X169266365Y-65350027D01*
X169381385Y-65522167D01*
X169460611Y-65713436D01*
X169501000Y-65916484D01*
X169501000Y-66123516D01*
X169460611Y-66326564D01*
X169381385Y-66517833D01*
X169381384Y-66517835D01*
X169266365Y-66689973D01*
X169119973Y-66836365D01*
X168947835Y-66951384D01*
X168947834Y-66951385D01*
X168947833Y-66951385D01*
X168756564Y-67030611D01*
X168553516Y-67071000D01*
X168346484Y-67071000D01*
X168143436Y-67030611D01*
X167952167Y-66951385D01*
X167952166Y-66951385D01*
X167952165Y-66951384D01*
X167780027Y-66836365D01*
X167633635Y-66689973D01*
X167518616Y-66517835D01*
X167518615Y-66517833D01*
X167439389Y-66326564D01*
X167399000Y-66123516D01*
X167399000Y-65916484D01*
X167439389Y-65713436D01*
X167518615Y-65522167D01*
X167633635Y-65350027D01*
X167780027Y-65203635D01*
X167952165Y-65088616D01*
X167952167Y-65088615D01*
X168143436Y-65009389D01*
X168346484Y-64969000D01*
X168553516Y-64969000D01*
X168756564Y-65009389D01*
G37*
G36*
X166216564Y-65009389D02*
G01*
X166407833Y-65088615D01*
X166407835Y-65088616D01*
X166579973Y-65203635D01*
X166726365Y-65350027D01*
X166841385Y-65522167D01*
X166920611Y-65713436D01*
X166961000Y-65916484D01*
X166961000Y-66123516D01*
X166920611Y-66326564D01*
X166841385Y-66517833D01*
X166841384Y-66517835D01*
X166726365Y-66689973D01*
X166579973Y-66836365D01*
X166407835Y-66951384D01*
X166407834Y-66951385D01*
X166407833Y-66951385D01*
X166216564Y-67030611D01*
X166013516Y-67071000D01*
X165806484Y-67071000D01*
X165603436Y-67030611D01*
X165412167Y-66951385D01*
X165412166Y-66951385D01*
X165412165Y-66951384D01*
X165240027Y-66836365D01*
X165093635Y-66689973D01*
X164978616Y-66517835D01*
X164978615Y-66517833D01*
X164899389Y-66326564D01*
X164859000Y-66123516D01*
X164859000Y-65916484D01*
X164899389Y-65713436D01*
X164978615Y-65522167D01*
X165093635Y-65350027D01*
X165240027Y-65203635D01*
X165412165Y-65088616D01*
X165412167Y-65088615D01*
X165603436Y-65009389D01*
X165806484Y-64969000D01*
X166013516Y-64969000D01*
X166216564Y-65009389D01*
G37*
G36*
X163676564Y-65009389D02*
G01*
X163867833Y-65088615D01*
X163867835Y-65088616D01*
X164039973Y-65203635D01*
X164186365Y-65350027D01*
X164301385Y-65522167D01*
X164380611Y-65713436D01*
X164421000Y-65916484D01*
X164421000Y-66123516D01*
X164380611Y-66326564D01*
X164301385Y-66517833D01*
X164301384Y-66517835D01*
X164186365Y-66689973D01*
X164039973Y-66836365D01*
X163867835Y-66951384D01*
X163867834Y-66951385D01*
X163867833Y-66951385D01*
X163676564Y-67030611D01*
X163473516Y-67071000D01*
X163266484Y-67071000D01*
X163063436Y-67030611D01*
X162872167Y-66951385D01*
X162872166Y-66951385D01*
X162872165Y-66951384D01*
X162700027Y-66836365D01*
X162553635Y-66689973D01*
X162438616Y-66517835D01*
X162438615Y-66517833D01*
X162359389Y-66326564D01*
X162319000Y-66123516D01*
X162319000Y-65916484D01*
X162359389Y-65713436D01*
X162438615Y-65522167D01*
X162553635Y-65350027D01*
X162700027Y-65203635D01*
X162872165Y-65088616D01*
X162872167Y-65088615D01*
X163063436Y-65009389D01*
X163266484Y-64969000D01*
X163473516Y-64969000D01*
X163676564Y-65009389D01*
G37*
G36*
X171296564Y-65009389D02*
G01*
X171487833Y-65088615D01*
X171487835Y-65088616D01*
X171659973Y-65203635D01*
X171806365Y-65350027D01*
X171921385Y-65522167D01*
X172000611Y-65713436D01*
X172041000Y-65916484D01*
X172041000Y-66123516D01*
X172000611Y-66326564D01*
X171921385Y-66517833D01*
X171921384Y-66517835D01*
X171806365Y-66689973D01*
X171659973Y-66836365D01*
X171487835Y-66951384D01*
X171487834Y-66951385D01*
X171487833Y-66951385D01*
X171296564Y-67030611D01*
X171093516Y-67071000D01*
X170886484Y-67071000D01*
X170683436Y-67030611D01*
X170492167Y-66951385D01*
X170492166Y-66951385D01*
X170492165Y-66951384D01*
X170320027Y-66836365D01*
X170173635Y-66689973D01*
X170058616Y-66517835D01*
X170058615Y-66517833D01*
X169979389Y-66326564D01*
X169939000Y-66123516D01*
X169939000Y-65916484D01*
X169979389Y-65713436D01*
X170058615Y-65522167D01*
X170173635Y-65350027D01*
X170320027Y-65203635D01*
X170492165Y-65088616D01*
X170492167Y-65088615D01*
X170683436Y-65009389D01*
X170886484Y-64969000D01*
X171093516Y-64969000D01*
X171296564Y-65009389D01*
G37*
M02*
